<svg width="64" height="64" viewBox="0 0 64 64" fill="none" xmlns="http://www.w3.org/2000/svg">
<path d="M52.1602 18.9836C57.2802 26.9036 57.2775 37.101 52.1628 45.0183" stroke="#00AEEF" stroke-width="3" stroke-linecap="round" stroke-linejoin="round"/>
<path d="M41.4599 22.5396C46.6846 27.7643 46.6846 36.2352 41.4599 41.4599C36.2352 46.6846 27.7643 46.6846 22.5396 41.4599C17.3149 36.2352 17.3149 27.7643 22.5396 22.5396C27.7643 17.3149 36.2352 17.3149 41.4599 22.5396" stroke="#00AEEF" stroke-width="3" stroke-linecap="round" stroke-linejoin="round"/>
<path d="M38.1914 20.1363L45.0821 11.7657C46.0847 10.547 47.9194 10.459 49.0367 11.5737L52.4314 14.9683C53.5487 16.0857 53.4581 17.9203 52.2394 18.923L43.8687 25.8137" stroke="#00AEEF" stroke-width="3" stroke-linecap="round" stroke-linejoin="round"/>
<path d="M25.8103 43.8643L18.9196 52.235C17.917 53.4537 16.0823 53.5417 14.965 52.427L11.5703 49.0323C10.453 47.915 10.5436 46.0803 11.7623 45.0777L20.133 38.187" stroke="#00AEEF" stroke-width="3" stroke-linecap="round" stroke-linejoin="round"/>
<path d="M20.1346 25.8103L11.7613 18.9196C10.5426 17.917 10.4546 16.0823 11.5693 14.965L14.9639 11.5703C16.0813 10.453 17.9159 10.5436 18.9186 11.7623L25.8093 20.133" stroke="#00AEEF" stroke-width="3" stroke-linecap="round" stroke-linejoin="round"/>
<path d="M43.8629 38.1892L52.2335 45.0799C53.4522 46.0825 53.5402 47.9172 52.4255 49.0345L49.0309 52.4292C47.9135 53.5465 46.0789 53.4559 45.0762 52.2372L38.1855 43.8665" stroke="#00AEEF" stroke-width="3" stroke-linecap="round" stroke-linejoin="round"/>
<path d="M45.019 52.1628C37.1017 57.2775 26.9017 57.2802 18.9844 52.1602" stroke="#00AEEF" stroke-width="3" stroke-linecap="round" stroke-linejoin="round"/>
<path d="M11.8347 18.9814C6.72005 26.8988 6.71738 37.0961 11.8374 45.0161" stroke="#00AEEF" stroke-width="3" stroke-linecap="round" stroke-linejoin="round"/>
<path d="M45.0132 11.8403C37.0932 6.72031 26.8958 6.72298 18.9785 11.8376" stroke="#00AEEF" stroke-width="3" stroke-linecap="round" stroke-linejoin="round"/>
</svg>
