<svg width="101" height="25" viewBox="0 0 101 25" fill="none" xmlns="http://www.w3.org/2000/svg">
<path d="M27.2647 2.68309H28.0625C28.1999 2.70019 28.3393 2.68869 28.4719 2.64919C28.6046 2.60979 28.7277 2.54329 28.8334 2.45389C28.9391 2.36459 29.0251 2.25429 29.086 2.12999C29.147 2.00569 29.1816 1.87019 29.1875 1.73189C29.1875 1.18162 28.7735 0.82615 28.0713 0.82615C27.9306 0.80649 27.7874 0.815221 27.6501 0.851831C27.5128 0.888441 27.3843 0.95218 27.272 1.0393C27.1598 1.12641 27.0661 1.23513 26.9966 1.35904C26.9271 1.48299 26.8831 1.61949 26.8672 1.76069H25.9912C26.0063 1.50439 26.074 1.25397 26.19 1.02496C26.3061 0.795951 26.4681 0.593281 26.6658 0.429581C26.8636 0.265871 27.093 0.14463 27.3397 0.0734101C27.5863 0.00219007 27.845 -0.0174898 28.0996 0.0156002C29.2744 0.0156002 30.1016 0.67331 30.1016 1.62009C30.1044 1.93729 29.9983 2.24579 29.801 2.49419C29.6037 2.74259 29.3272 2.91569 29.0176 2.98479V3.05519C29.3846 3.07139 29.7302 3.23239 29.9789 3.50269C30.2276 3.77309 30.3592 4.13099 30.3448 4.49799C30.3176 4.76189 30.238 5.01769 30.1107 5.25049C29.9834 5.48319 29.8109 5.68819 29.6034 5.85339C29.3958 6.01859 29.1574 6.14079 28.902 6.21259C28.6466 6.28449 28.3795 6.30469 28.1162 6.27199C27.8524 6.30789 27.5841 6.29039 27.3272 6.22039C27.0703 6.15049 26.8301 6.02949 26.621 5.86479C26.4118 5.69999 26.238 5.49479 26.1098 5.26139C25.9817 5.02799 25.9018 4.77119 25.875 4.50629H26.7647C26.8184 5.07709 27.3428 5.44529 28.1162 5.44529C28.8897 5.44529 29.3946 5.03179 29.3946 4.44879C29.3946 3.85749 28.919 3.49319 28.0879 3.49319H27.2647V2.68309Z" fill="white"/>
<path fill-rule="evenodd" clip-rule="evenodd" d="M31.3555 4.854C31.3555 4.0435 31.96 3.5762 33.0303 3.5098L34.25 3.4395V3.0508C34.25 2.5752 33.9366 2.3067 33.3282 2.3067C32.8321 2.3067 32.4893 2.4888 32.3897 2.8071H31.5293C31.6202 2.0337 32.3487 1.5376 33.3702 1.5376C34.4991 1.5376 35.1358 2.0996 35.1358 3.0508V6.1275H34.2793V5.4946H34.209C34.0663 5.7216 33.8659 5.9067 33.6283 6.0309C33.3907 6.1551 33.1243 6.214 32.8565 6.2016C32.6674 6.2213 32.4764 6.2011 32.2956 6.1424C32.1149 6.0837 31.9484 5.9878 31.807 5.8608C31.6656 5.7339 31.5523 5.5787 31.4746 5.4053C31.3968 5.2318 31.3562 5.0441 31.3555 4.854ZM34.25 4.4692V4.0928L33.1504 4.1631C32.5303 4.2046 32.249 4.4155 32.249 4.8125C32.249 5.2178 32.6006 5.4536 33.084 5.4536C33.2257 5.468 33.3687 5.4537 33.5048 5.4116C33.6408 5.3695 33.7669 5.3005 33.8757 5.2086C33.9845 5.1168 34.0737 5.004 34.138 4.877C34.2023 4.7499 34.2404 4.6113 34.25 4.4692Z" fill="white"/>
<path d="M37.4942 2.37261V6.12751H36.6055V1.62451H39.5704V2.37251L37.4942 2.37261Z" fill="white"/>
<path fill-rule="evenodd" clip-rule="evenodd" d="M44.9551 3.87399C44.9551 5.30469 44.2315 6.20159 43.0947 6.20159C42.8157 6.22069 42.537 6.15959 42.2915 6.02559C42.046 5.89159 41.8439 5.69029 41.709 5.44529H41.6387V7.62449H40.75V1.62449H41.6055V2.36869H41.6719C41.8092 2.11509 42.014 1.90439 42.2635 1.75989C42.513 1.61539 42.7977 1.54269 43.086 1.54979C44.2315 1.54979 44.9551 2.44279 44.9551 3.87399ZM44.041 3.87399C44.041 2.92279 43.5908 2.34809 42.8379 2.34809C42.0899 2.34809 41.6221 2.93499 41.6221 3.87789C41.6221 4.81639 42.0899 5.40379 42.834 5.40379C43.5908 5.40379 44.041 4.82909 44.041 3.87399Z" fill="white"/>
<path d="M46.1426 7.74031V6.97511C46.2388 6.98731 46.3357 6.99291 46.4326 6.99171C46.622 7.00571 46.8098 6.94941 46.9601 6.83341C47.1104 6.71741 47.2126 6.55001 47.2471 6.36331L47.3135 6.14411L45.6836 1.62451H46.6514L47.7803 5.20121H47.8506L48.9756 1.62451H49.918L48.2393 6.31351C47.8545 7.40921 47.4288 7.76081 46.5108 7.76081C46.4366 7.76081 46.2256 7.75251 46.1426 7.74031Z" fill="white"/>
<path d="M50.6094 4.84971H51.4941C51.581 5.24671 51.9531 5.45371 52.4736 5.45371C53.0654 5.45371 53.4287 5.19301 53.4287 4.78771C53.4287 4.35361 53.1025 4.14661 52.4736 4.14661H51.7998V3.45621H52.4619C52.999 3.45621 53.2724 3.24962 53.2724 2.87322C53.2724 2.54262 53.0078 2.29021 52.4619 2.29021C51.9648 2.29021 51.6015 2.50111 51.5439 2.85661H50.6875C50.7515 2.44811 50.9733 2.08112 51.3051 1.83452C51.6369 1.58782 52.0523 1.48131 52.4619 1.53771C53.5322 1.53771 54.1445 2.02161 54.1445 2.78241C54.1495 2.99421 54.0816 3.20131 53.9522 3.36911C53.8228 3.53691 53.6397 3.65521 53.4336 3.70421V3.77451C53.679 3.80621 53.9043 3.92691 54.0667 4.11361C54.229 4.30041 54.3172 4.54031 54.3144 4.78771C54.3144 5.64371 53.5859 6.21011 52.4736 6.21011C51.4902 6.21011 50.6914 5.75941 50.6094 4.84971Z" fill="white"/>
<path d="M55.5938 6.12751V1.62451H56.4746V4.72171H56.5449L58.6201 1.62451H59.5009V6.12751H58.6201V3.01371H58.5537L56.4746 6.12751H55.5938Z" fill="white"/>
<path d="M64.3545 2.37251H62.9365V6.12741H62.0469V2.37251H60.6289V1.62451H64.3545V2.37251Z" fill="white"/>
<path fill-rule="evenodd" clip-rule="evenodd" d="M69.1413 4.91168C69.0202 5.32318 68.7584 5.67908 68.4016 5.91718C68.0448 6.15528 67.6156 6.26048 67.1892 6.21438C66.8925 6.22228 66.5977 6.16538 66.3252 6.04788C66.0527 5.93038 65.809 5.75498 65.6111 5.53378C65.4132 5.31268 65.2658 5.05108 65.1791 4.76728C65.0924 4.48348 65.0685 4.18418 65.1091 3.89018C65.0696 3.59528 65.0939 3.29538 65.1804 3.01068C65.2669 2.72598 65.4135 2.46328 65.6104 2.24018C65.8072 2.01708 66.0497 1.83898 66.3214 1.71768C66.5932 1.59648 66.8877 1.53508 67.1853 1.53768C68.4382 1.53768 69.195 2.39368 69.195 3.80768V4.11778H66.0153V4.16758C66.0013 4.33278 66.0219 4.49918 66.076 4.65608C66.13 4.81288 66.2163 4.95668 66.3293 5.07818C66.4422 5.19958 66.5793 5.29618 66.7318 5.36148C66.8842 5.42678 67.0487 5.45958 67.2146 5.45758C67.427 5.48298 67.6422 5.44458 67.8328 5.34738C68.0233 5.25018 68.1807 5.09848 68.2849 4.91168H69.1413ZM66.0153 3.46048H68.2887C68.3 3.30948 68.2795 3.15768 68.2286 3.01508C68.1777 2.87238 68.0976 2.74198 67.9933 2.63208C67.889 2.52228 67.7629 2.43538 67.6231 2.37718C67.4832 2.31898 67.3328 2.29068 67.1813 2.29398C67.0276 2.29188 66.875 2.32068 66.7325 2.37858C66.5901 2.43648 66.4607 2.52228 66.352 2.63108C66.2433 2.73978 66.1575 2.86918 66.0997 3.01168C66.0419 3.15418 66.0132 3.30678 66.0153 3.46048Z" fill="white"/>
<path fill-rule="evenodd" clip-rule="evenodd" d="M72.9062 1.62451H74.9364C75.8173 1.62451 76.3339 2.07081 76.3339 2.76951C76.3353 2.99121 76.2605 3.20671 76.122 3.37981C75.9835 3.55301 75.7898 3.67331 75.5732 3.72071V3.79101C75.8361 3.80761 76.0827 3.92461 76.2619 4.11781C76.4411 4.31101 76.5392 4.56561 76.5361 4.82911C76.5361 5.61471 75.9452 6.12741 74.957 6.12741H72.9062V1.62451ZM73.787 2.30671V3.47271H74.6679C75.205 3.47271 75.4618 3.26611 75.4618 2.88531C75.4618 2.53421 75.2382 2.30661 74.7665 2.30661L73.787 2.30671ZM73.787 4.12601V5.44531H74.8409C75.3663 5.44531 75.6474 5.21341 75.6474 4.78761C75.6474 4.33691 75.3291 4.12601 74.7294 4.12601H73.787Z" fill="white"/>
<path d="M12.5629 3.64049C13.3745 2.66629 13.7743 1.41414 13.6774 0.149902C12.4376 0.280132 11.2924 0.872682 10.4699 1.80949C10.0677 2.26719 9.75971 2.79959 9.56351 3.37639C9.36721 3.95319 9.28661 4.56299 9.32621 5.17089C9.94631 5.17729 10.5598 5.04289 11.1205 4.77779C11.6811 4.51269 12.1743 4.12389 12.5629 3.64049Z" fill="white"/>
<path d="M15.2973 11.7301C15.308 10.8954 15.5297 10.077 15.9418 9.35107C16.3538 8.62507 16.9428 8.01517 17.6539 7.57797C17.2021 6.93287 16.6062 6.40187 15.9133 6.02737C15.2205 5.65277 14.4499 5.44497 13.6627 5.42027C12.6355 5.31247 11.6275 5.71257 10.8038 6.03947C10.2808 6.24707 9.8321 6.42517 9.4998 6.42517C9.1218 6.42517 8.6602 6.23967 8.143 6.03197C7.4666 5.76027 6.6952 5.45047 5.8913 5.46697C4.9736 5.49667 4.0793 5.76347 3.2954 6.24157C2.5115 6.71957 1.8648 7.39257 1.4184 8.19487C-0.515626 11.5433 0.927004 16.4644 2.7796 19.171C3.7065 20.4963 4.7898 21.9768 6.2072 21.9243C6.8502 21.8976 7.3064 21.7056 7.7777 21.5073C8.323 21.2778 8.8885 21.0398 9.7866 21.0398C10.6335 21.0398 11.1747 21.2703 11.694 21.4916C12.1919 21.7037 12.6697 21.9072 13.3776 21.8909C14.866 21.8667 15.8037 20.5597 16.6981 19.2218C17.3641 18.2774 17.8766 17.2337 18.2165 16.1292C17.3518 15.7635 16.6139 15.1513 16.0948 14.369C15.5757 13.5867 15.2983 12.6689 15.2973 11.7301Z" fill="white"/>
<path fill-rule="evenodd" clip-rule="evenodd" d="M28.0947 18.5694H32.8281L33.9638 21.9258H36.0029L31.5195 9.50781H29.4365L24.9531 21.9258H26.958L28.0947 18.5694ZM32.3369 17.0205H28.5849L30.4356 11.5733H30.4873L32.3369 17.0205Z" fill="white"/>
<path fill-rule="evenodd" clip-rule="evenodd" d="M45.6885 17.3992C45.6885 20.2127 44.1827 22.0203 41.9102 22.0203C41.3346 22.0504 40.7621 21.9178 40.2583 21.6377C39.7545 21.3575 39.3398 20.9412 39.0616 20.4363H39.0186V24.9207H37.1602V12.8718H38.9591V14.3777H38.9932C39.2842 13.8752 39.7059 13.4611 40.2135 13.1792C40.7212 12.8974 41.2957 12.7584 41.876 12.7771C44.1739 12.7771 45.6885 14.5935 45.6885 17.3992ZM43.7784 17.3992C43.7784 15.5662 42.8311 14.3611 41.3858 14.3611C39.9659 14.3611 39.0108 15.5916 39.0108 17.3992C39.0108 19.2234 39.9659 20.4451 41.3858 20.4451C42.8311 20.4451 43.7784 19.2488 43.7784 17.3992Z" fill="white"/>
<path fill-rule="evenodd" clip-rule="evenodd" d="M51.8751 22.0203C54.1475 22.0203 55.6534 20.2127 55.6534 17.3992C55.6534 14.5935 54.1387 12.7771 51.8409 12.7771C51.2605 12.7584 50.686 12.8974 50.1784 13.1792C49.6707 13.461 49.249 13.8752 48.958 14.3777H48.9239V12.8718H47.125V24.9207H48.9834V20.4363H49.0264C49.3046 20.9412 49.7193 21.3575 50.2231 21.6376C50.7269 21.9178 51.2994 22.0504 51.8751 22.0203ZM51.3506 14.3611C52.796 14.3611 53.7432 15.5662 53.7432 17.3992C53.7432 19.2488 52.796 20.4451 51.3506 20.4451C49.9307 20.4451 48.9756 19.2234 48.9756 17.3992C48.9756 15.5916 49.9307 14.3611 51.3506 14.3611Z" fill="white"/>
<path d="M62.2383 18.4659C62.376 19.6973 63.5723 20.5059 65.2071 20.5059C66.7735 20.5059 67.9004 19.6973 67.9004 18.5869C67.9004 17.623 67.2207 17.0459 65.6114 16.6504L64.002 16.2627C61.7217 15.7119 60.6631 14.6455 60.6631 12.915C60.6631 10.7725 62.5303 9.30078 65.1817 9.30078C67.8057 9.30078 69.6045 10.7725 69.6651 12.915H67.7891C67.6768 11.6758 66.6524 10.9277 65.1553 10.9277C63.6582 10.9277 62.6338 11.6846 62.6338 12.7861C62.6338 13.6641 63.2881 14.1807 64.8887 14.5761L66.2568 14.9121C68.8047 15.5146 69.8633 16.5381 69.8633 18.3545C69.8633 20.6777 68.0127 22.1328 65.0693 22.1328C62.3154 22.1328 60.4561 20.7119 60.3359 18.4658L62.2383 18.4659Z" fill="white"/>
<path d="M73.875 12.8721V10.7295H72.0078V12.8721H70.6914V14.3437H72.0078V19.5332C72.0078 21.289 72.7227 21.9775 74.5557 21.9775C74.9018 21.9839 75.2476 21.9551 75.5879 21.8916V20.4287C75.385 20.4538 75.181 20.4681 74.9766 20.4717C74.2198 20.4717 73.875 20.1103 73.875 19.335V14.3437H75.5967V12.8721H73.875Z" fill="white"/>
<path fill-rule="evenodd" clip-rule="evenodd" d="M76.5938 17.3994C76.5938 14.5508 78.2714 12.7607 80.8876 12.7607C83.5126 12.7607 85.1826 14.5507 85.1826 17.3994C85.1826 20.2559 83.5214 22.0381 80.8876 22.0381C78.2548 22.0381 76.5938 20.2558 76.5938 17.3994ZM83.289 17.3994C83.289 15.4453 82.3935 14.292 80.8876 14.292C79.3818 14.292 78.4873 15.4541 78.4873 17.3994C78.4873 19.3613 79.3818 20.5059 80.8876 20.5059C82.3935 20.5059 83.289 19.3613 83.289 17.3994Z" fill="white"/>
<path d="M88.4872 12.8718H86.7148V21.9255H88.5732V16.5553C88.5426 16.2869 88.5705 16.015 88.6549 15.7583C88.7393 15.5016 88.8783 15.2663 89.0623 15.0684C89.2463 14.8705 89.4709 14.7148 89.7207 14.6119C89.9706 14.509 90.2397 14.4614 90.5097 14.4723C90.7925 14.4641 91.0745 14.502 91.3445 14.5846V12.8464C91.1355 12.7995 90.9225 12.7763 90.7075 12.777C90.2123 12.7581 89.7253 12.9104 89.3287 13.2083C88.9321 13.5061 88.6502 13.9315 88.5302 14.4128H88.4872V12.8718Z" fill="white"/>
<path fill-rule="evenodd" clip-rule="evenodd" d="M99.9131 19.2666C99.6631 20.9101 98.0621 22.0381 96.0141 22.0381C93.3801 22.0381 91.7461 20.2734 91.7461 17.4424C91.7461 14.6025 93.3891 12.7607 95.9361 12.7607C98.4411 12.7607 100.016 14.4814 100.016 17.2266V17.8633H93.6221V17.9756C93.5921 18.3088 93.6341 18.6444 93.7441 18.9603C93.8541 19.2761 94.0301 19.5649 94.2611 19.8075C94.4911 20.05 94.7701 20.2408 95.0801 20.3671C95.3901 20.4934 95.7231 20.5523 96.0571 20.54C96.4961 20.5812 96.9371 20.4795 97.3141 20.25C97.6901 20.0206 97.9831 19.6757 98.1481 19.2666H99.9131ZM93.6301 16.5644H98.1571C98.1731 16.2648 98.1281 15.965 98.0231 15.6838C97.9191 15.4026 97.7571 15.1461 97.5481 14.9303C97.3401 14.7145 97.0891 14.5442 96.8121 14.43C96.5341 14.3158 96.2361 14.2601 95.9361 14.2666C95.6331 14.2648 95.3331 14.3229 95.0531 14.4377C94.7731 14.5524 94.5191 14.7215 94.3041 14.9351C94.0901 15.1487 93.9201 15.4027 93.8041 15.6824C93.6891 15.962 93.6301 16.2618 93.6301 16.5644Z" fill="white"/>
</svg>
