<svg width="97" height="26" viewBox="0 0 97 26" fill="none" xmlns="http://www.w3.org/2000/svg">
<path fill-rule="evenodd" clip-rule="evenodd" d="M12.98 26C7.09707 26 4.1556 26 2.3278 24.1722C0.5 22.3444 0.5 19.4029 0.5 13.52V12.48C0.5 6.59707 0.5 3.6556 2.3278 1.8278C4.1556 0 7.09707 0 12.98 0H14.02C19.9029 0 22.8444 0 24.6722 1.8278C26.5 3.6556 26.5 6.59707 26.5 12.4791V13.5191C26.5 19.4038 26.5 22.3444 24.6722 24.1722C22.8444 26 19.9029 26 14.02 26H12.98Z" fill="#285DD6"/>
<path d="M15.535 16.0228C15.1952 15.9387 14.8934 15.7433 14.6774 15.4679C14.4615 15.1924 14.3439 14.8527 14.3433 14.5027V6.03533C14.3433 5.21893 15.1146 4.62006 15.9102 4.81853L20.949 6.07779C21.2888 6.16191 21.5907 6.35724 21.8066 6.6327C22.0225 6.90815 22.1401 7.24792 22.1407 7.59793V16.0653C22.1407 16.8817 21.3694 17.4805 20.5738 17.2812L15.535 16.0228ZM6.05104 19.9219C5.71129 19.8378 5.40943 19.6425 5.19349 19.367C4.97756 19.0916 4.85995 18.7518 4.85938 18.4018V9.93446C4.85938 9.11806 5.63071 8.52006 6.42631 8.71853L11.4651 9.97693C11.8049 10.061 12.1067 10.2564 12.3227 10.5318C12.5386 10.8073 12.6562 11.147 12.6568 11.4971V19.9644C12.6568 20.7808 11.8854 21.3797 11.0898 21.1803L6.05104 19.9219Z" fill="white"/>
<path d="M10.7932 17.9722C10.4535 17.888 10.1516 17.6927 9.93568 17.4173C9.71974 17.1418 9.60213 16.802 9.60156 16.452V7.98469C9.60156 7.16829 10.3729 6.57029 11.1685 6.76876L16.2073 8.02716C16.547 8.11128 16.8489 8.30661 17.0648 8.58206C17.2808 8.85752 17.3984 9.19729 17.399 9.54729V18.0146C17.399 18.831 16.6276 19.4299 15.832 19.2306L10.7932 17.9722Z" fill="white"/>
<path d="M14.095 18.798C13.9876 18.7708 13.8919 18.7095 13.8223 18.6232C13.7527 18.5369 13.7131 18.4304 13.7093 18.3196L13.4901 11.8526C13.4268 10.9972 12.7915 10.3168 12.1277 10.1158C12.1094 10.1104 12.0898 10.111 12.0719 10.1175C12.0539 10.1241 12.0385 10.1362 12.028 10.1522C12.0175 10.1681 12.0135 10.1874 12.0167 10.2063C12.0199 10.2251 12.0302 10.242 12.0453 10.2536C12.21 10.381 12.6607 10.7952 12.6607 11.5094L12.6598 18.434L14.095 18.798ZM18.8374 16.848C18.7303 16.821 18.6348 16.7599 18.5654 16.674C18.496 16.588 18.4564 16.4818 18.4526 16.3714L18.2333 9.90428C18.1701 9.04888 17.5348 8.36855 16.8701 8.16748C16.8519 8.16229 16.8325 8.16302 16.8147 8.16957C16.797 8.17611 16.7818 8.18813 16.7713 8.20388C16.7608 8.21984 16.7568 8.23918 16.76 8.258C16.7632 8.27682 16.7734 8.29372 16.7886 8.30528C16.9533 8.43268 17.4039 8.84695 17.4039 9.56108L17.4031 16.4883L18.8374 16.8471V16.848Z" fill="#285DD6"/>
<path d="M41.1149 19.398C42.8696 18.9513 44.0227 17.6112 44.0227 15.8568C44.0227 13.6888 42.285 12.1659 39.8444 12.1659H35.5V23.8334H37.505V19.5469H38.9261L42.034 23.8334H44.3896L41.1149 19.398ZM39.8444 13.9866C41.0979 13.9866 41.9668 14.7473 41.9668 15.8568C41.9668 16.9654 41.0979 17.7269 39.8452 17.7269H37.505V13.9859H39.8452L39.8444 13.9866ZM48.9031 23.9992C49.4215 23.9993 49.9311 23.8652 50.3821 23.6099C50.8332 23.3546 51.2102 22.9869 51.4766 22.5426L51.8612 23.8334H53.2977V15.228H51.3762V20.2096C51.3762 21.4347 50.5575 22.295 49.4376 22.295C48.3347 22.295 47.5662 21.4347 47.5662 20.2096V15.228H45.6447V20.4248C45.6447 22.494 47.048 24 48.9031 24V23.9992ZM59.4309 23.9992C61.6537 23.9992 63.4918 22.7417 63.4918 20.6563C63.4918 18.3225 61.5695 17.6436 59.9159 17.0811C58.6292 16.6506 57.5093 16.2541 57.5093 15.211C57.5093 14.3006 58.3612 13.8208 59.3637 13.8208C60.4172 13.8208 61.1686 14.367 61.5865 15.2943L63.4918 14.9796C62.8894 13.1588 61.3694 12 59.2973 12C57.1579 12 55.4533 13.2252 55.4533 15.3098C55.4533 17.6605 57.3757 18.3055 59.0293 18.8517C60.2998 19.266 61.4359 19.6634 61.4359 20.7219C61.4359 21.6492 60.584 22.1785 59.4479 22.1785C58.1442 22.1785 57.4421 21.5667 56.8242 20.458L54.8857 20.7882C55.4541 22.7579 57.2583 23.9992 59.4309 23.9992ZM68.719 22.1792C68.0679 22.1792 67.7505 21.8645 67.7505 21.2187V16.8829H70.3401V15.2272H67.7505V12.7453H66.3132L65.8282 15.2272H64.4086V16.8829H65.8297V21.2187C65.8297 22.9068 66.8152 23.8341 68.7198 23.8341H70.3417L70.5085 22.1785H68.7182L68.719 22.1792ZM75.9991 23.9992C78.7223 23.9992 80.6447 22.1453 80.6447 19.5307C80.6447 16.9153 78.7223 15.0621 75.9991 15.0621C73.275 15.0621 71.3535 16.916 71.3535 19.5307C71.3535 22.1461 73.275 23.9992 75.9991 23.9992ZM75.9991 22.261C74.4281 22.261 73.3584 21.1524 73.3584 19.5307C73.3584 17.909 74.4281 16.7995 75.9991 16.7995C77.57 16.7995 78.6389 17.909 78.6389 19.5307C78.6389 21.1524 77.57 22.2618 75.9991 22.2618V22.261ZM84.2368 23.8334V18.7538C84.2368 17.6613 84.7713 17.0487 85.9414 17.0487H87.0443L86.8774 15.228H86.5098C85.4903 15.228 84.7049 15.5096 84.1202 16.4701L83.7526 15.228H82.3152V23.8341H84.2368V23.8334ZM96.5 19.4311C96.5 16.9492 94.6286 15.0621 91.988 15.0621C89.3482 15.0621 87.4768 16.9322 87.4768 19.5307C87.4768 22.1291 89.3482 23.9992 91.988 23.9992C93.793 23.9992 95.4975 23.1552 96.1494 21.5165L94.3444 21.2187C93.9266 21.8313 93.1249 22.2618 92.1054 22.2618C90.6349 22.2618 89.6656 21.3676 89.4818 20.0437H96.4668C96.4838 19.8616 96.5 19.6634 96.5 19.4311ZM91.988 16.717C93.1913 16.717 94.0942 17.4785 94.4116 18.5539H89.5984C89.9166 17.4453 90.8187 16.7178 91.988 16.7178V16.717Z" fill="white"/>
<path d="M35.8897 4.68309H36.6875C36.8249 4.70019 36.9643 4.68869 37.0969 4.64919C37.2296 4.60979 37.3527 4.54329 37.4584 4.45389C37.5641 4.36459 37.6501 4.25429 37.711 4.12999C37.772 4.00569 37.8066 3.87019 37.8125 3.73189C37.8125 3.18162 37.3985 2.82615 36.6963 2.82615C36.5556 2.80649 36.4124 2.81522 36.2751 2.85183C36.1378 2.88844 36.0093 2.95218 35.897 3.0393C35.7848 3.12641 35.6911 3.23513 35.6216 3.35904C35.5521 3.48299 35.5081 3.61949 35.4922 3.76069H34.6162C34.6313 3.50439 34.699 3.25397 34.815 3.02496C34.9311 2.79595 35.0931 2.59328 35.2908 2.42958C35.4886 2.26587 35.718 2.14463 35.9647 2.07341C36.2113 2.00219 36.47 1.98251 36.7246 2.0156C37.8994 2.0156 38.7266 2.67331 38.7266 3.62009C38.7294 3.93729 38.6233 4.24579 38.426 4.49419C38.2287 4.74259 37.9522 4.91569 37.6426 4.98479V5.05519C38.0096 5.07139 38.3552 5.23239 38.6039 5.50269C38.8526 5.77309 38.9842 6.13099 38.9698 6.49799C38.9426 6.76189 38.863 7.01769 38.7357 7.25049C38.6084 7.48319 38.4359 7.68819 38.2284 7.85339C38.0208 8.01859 37.7824 8.14079 37.527 8.21259C37.2716 8.28449 37.0045 8.30469 36.7412 8.27199C36.4774 8.30789 36.2091 8.29039 35.9522 8.22039C35.6953 8.15049 35.4551 8.02949 35.246 7.86479C35.0368 7.69999 34.863 7.49479 34.7348 7.26139C34.6067 7.02799 34.5268 6.77119 34.5 6.50629H35.3897C35.4434 7.07709 35.9678 7.44529 36.7412 7.44529C37.5147 7.44529 38.0196 7.03179 38.0196 6.44879C38.0196 5.85749 37.544 5.49319 36.7129 5.49319H35.8897V4.68309Z" fill="white"/>
<path fill-rule="evenodd" clip-rule="evenodd" d="M39.9805 6.854C39.9805 6.0435 40.585 5.5762 41.6553 5.5098L42.875 5.4395V5.0508C42.875 4.5752 42.5616 4.3067 41.9532 4.3067C41.4571 4.3067 41.1143 4.4888 41.0147 4.8071H40.1543C40.2452 4.0337 40.9737 3.5376 41.9952 3.5376C43.1241 3.5376 43.7608 4.0996 43.7608 5.0508V8.1275H42.9043V7.4946H42.834C42.6913 7.7216 42.4909 7.9067 42.2533 8.0309C42.0157 8.1551 41.7493 8.214 41.4815 8.2016C41.2924 8.2213 41.1014 8.2011 40.9206 8.1424C40.7399 8.0837 40.5734 7.9878 40.432 7.8608C40.2906 7.7339 40.1773 7.5787 40.0996 7.4053C40.0218 7.2318 39.9812 7.0441 39.9805 6.854ZM42.875 6.4692V6.0928L41.7754 6.1631C41.1553 6.2046 40.874 6.4155 40.874 6.8125C40.874 7.2178 41.2256 7.4536 41.709 7.4536C41.8507 7.468 41.9937 7.4537 42.1298 7.4116C42.2658 7.3695 42.3919 7.3005 42.5007 7.2086C42.6095 7.1168 42.6987 7.004 42.763 6.877C42.8273 6.7499 42.8654 6.6113 42.875 6.4692Z" fill="white"/>
<path d="M46.1192 4.37261V8.12751H45.2305V3.62451H48.1954V4.37251L46.1192 4.37261Z" fill="white"/>
<path fill-rule="evenodd" clip-rule="evenodd" d="M53.5801 5.87399C53.5801 7.30469 52.8565 8.20159 51.7197 8.20159C51.4407 8.22069 51.162 8.15959 50.9165 8.02559C50.671 7.89159 50.4689 7.69029 50.334 7.44529H50.2637V9.62449H49.375V3.62449H50.2305V4.36869H50.2969C50.4342 4.11509 50.639 3.90439 50.8885 3.75989C51.138 3.61539 51.4227 3.54269 51.711 3.54979C52.8565 3.54979 53.5801 4.44279 53.5801 5.87399ZM52.666 5.87399C52.666 4.92279 52.2158 4.34809 51.4629 4.34809C50.7149 4.34809 50.2471 4.93499 50.2471 5.87789C50.2471 6.81639 50.7149 7.40379 51.459 7.40379C52.2158 7.40379 52.666 6.82909 52.666 5.87399Z" fill="white"/>
<path d="M54.7676 9.74031V8.97511C54.8638 8.98731 54.9607 8.99291 55.0576 8.99171C55.247 9.00571 55.4348 8.94941 55.5851 8.83341C55.7354 8.71741 55.8376 8.55001 55.8721 8.36331L55.9385 8.14411L54.3086 3.62451H55.2764L56.4053 7.20121H56.4756L57.6006 3.62451H58.543L56.8643 8.31351C56.4795 9.40921 56.0538 9.76081 55.1358 9.76081C55.0616 9.76081 54.8506 9.75251 54.7676 9.74031Z" fill="white"/>
<path d="M59.2344 6.84971H60.1191C60.206 7.24671 60.5781 7.45371 61.0986 7.45371C61.6904 7.45371 62.0537 7.19301 62.0537 6.78771C62.0537 6.35361 61.7275 6.14661 61.0986 6.14661H60.4248V5.45621H61.0869C61.624 5.45621 61.8974 5.24962 61.8974 4.87322C61.8974 4.54262 61.6328 4.29021 61.0869 4.29021C60.5898 4.29021 60.2265 4.50111 60.1689 4.85661H59.3125C59.3765 4.44811 59.5983 4.08112 59.9301 3.83452C60.2619 3.58782 60.6773 3.48131 61.0869 3.53771C62.1572 3.53771 62.7695 4.02161 62.7695 4.78241C62.7745 4.99421 62.7066 5.20131 62.5772 5.36911C62.4478 5.53691 62.2647 5.65521 62.0586 5.70421V5.77451C62.304 5.80621 62.5293 5.92691 62.6917 6.11361C62.854 6.30041 62.9422 6.54031 62.9394 6.78771C62.9394 7.64371 62.2109 8.21011 61.0986 8.21011C60.1152 8.21011 59.3164 7.75941 59.2344 6.84971Z" fill="white"/>
<path d="M64.2188 8.12751V3.62451H65.0996V6.72171H65.1699L67.2451 3.62451H68.1259V8.12751H67.2451V5.01371H67.1787L65.0996 8.12751H64.2188Z" fill="white"/>
<path d="M72.9795 4.37251H71.5615V8.12741H70.6719V4.37251H69.2539V3.62451H72.9795V4.37251Z" fill="white"/>
<path fill-rule="evenodd" clip-rule="evenodd" d="M77.7663 6.91168C77.6452 7.32318 77.3834 7.67908 77.0266 7.91718C76.6698 8.15528 76.2406 8.26048 75.8142 8.21438C75.5175 8.22228 75.2227 8.16538 74.9502 8.04788C74.6777 7.93038 74.434 7.75498 74.2361 7.53378C74.0382 7.31268 73.8908 7.05108 73.8041 6.76728C73.7174 6.48348 73.6935 6.18418 73.7341 5.89018C73.6946 5.59528 73.7189 5.29538 73.8054 5.01068C73.8919 4.72598 74.0385 4.46328 74.2354 4.24018C74.4322 4.01708 74.6747 3.83898 74.9464 3.71768C75.2182 3.59648 75.5127 3.53508 75.8103 3.53768C77.0632 3.53768 77.82 4.39368 77.82 5.80768V6.11778H74.6403V6.16758C74.6263 6.33278 74.6469 6.49918 74.701 6.65608C74.755 6.81288 74.8413 6.95668 74.9543 7.07818C75.0672 7.19958 75.2043 7.29618 75.3568 7.36148C75.5092 7.42678 75.6737 7.45958 75.8396 7.45758C76.052 7.48298 76.2672 7.44458 76.4578 7.34738C76.6483 7.25018 76.8057 7.09848 76.9099 6.91168H77.7663ZM74.6403 5.46048H76.9137C76.925 5.30948 76.9045 5.15768 76.8536 5.01508C76.8027 4.87238 76.7226 4.74198 76.6183 4.63208C76.514 4.52228 76.3879 4.43538 76.2481 4.37718C76.1082 4.31898 75.9578 4.29068 75.8063 4.29398C75.6526 4.29188 75.5 4.32068 75.3575 4.37858C75.2151 4.43648 75.0857 4.52228 74.977 4.63108C74.8683 4.73978 74.7825 4.86918 74.7247 5.01168C74.6669 5.15418 74.6382 5.30678 74.6403 5.46048Z" fill="white"/>
<path fill-rule="evenodd" clip-rule="evenodd" d="M81.5312 3.62451H83.5614C84.4423 3.62451 84.9589 4.07081 84.9589 4.76951C84.9603 4.99121 84.8855 5.20671 84.747 5.37981C84.6085 5.55301 84.4148 5.67331 84.1982 5.72071V5.79101C84.4611 5.80761 84.7077 5.92461 84.8869 6.11781C85.0661 6.31101 85.1642 6.56561 85.1611 6.82911C85.1611 7.61471 84.5702 8.12741 83.582 8.12741H81.5312V3.62451ZM82.412 4.30671V5.47271H83.2929C83.83 5.47271 84.0868 5.26611 84.0868 4.88531C84.0868 4.53421 83.8632 4.30661 83.3915 4.30661L82.412 4.30671ZM82.412 6.12601V7.44531H83.4659C83.9913 7.44531 84.2724 7.21341 84.2724 6.78761C84.2724 6.33691 83.9541 6.12601 83.3544 6.12601H82.412Z" fill="white"/>
</svg>
