<svg width="103" height="25" viewBox="0 0 103 25" fill="none" xmlns="http://www.w3.org/2000/svg">
<path d="M51.9544 14.1953C49.829 14.1953 48.1463 15.7894 48.1463 18.0034C48.1463 20.1289 49.829 21.8116 51.9544 21.8116C54.0799 21.8116 55.7625 20.2175 55.7625 18.0034C55.7625 15.7009 54.0799 14.1953 51.9544 14.1953ZM51.9544 20.2175C50.8031 20.2175 49.829 19.2433 49.829 17.9149C49.829 16.5865 50.8031 15.6123 51.9544 15.6123C53.1057 15.6123 54.0799 16.4979 54.0799 17.9149C54.0799 19.2433 53.1057 20.2175 51.9544 20.2175ZM43.7183 14.1953C41.5928 14.1953 39.9101 15.7894 39.9101 18.0034C39.9101 20.1289 41.5928 21.8116 43.7183 21.8116C45.8437 21.8116 47.5264 20.2175 47.5264 18.0034C47.5264 15.7009 45.8437 14.1953 43.7183 14.1953ZM43.7183 20.2175C42.567 20.2175 41.5928 19.2433 41.5928 17.9149C41.5928 16.5865 42.567 15.6123 43.7183 15.6123C44.8695 15.6123 45.8437 16.4979 45.8437 17.9149C45.8437 19.2433 44.8695 20.2175 43.7183 20.2175ZM33.888 15.3466V16.9407H37.6961C37.6075 17.8263 37.2533 18.5348 36.8105 18.9776C36.2791 19.509 35.3935 20.1289 33.888 20.1289C31.4968 20.1289 29.7256 18.2691 29.7256 15.878C29.7256 13.4868 31.5854 11.6271 33.888 11.6271C35.1278 11.6271 36.102 12.1584 36.8105 12.7783L37.9618 11.6271C36.9876 10.7414 35.7478 10.033 33.9766 10.033C30.7884 10.033 28.043 12.6898 28.043 15.878C28.043 19.0662 30.7884 21.723 33.9766 21.723C35.7478 21.723 36.9876 21.1916 38.0504 20.0403C39.1131 18.9776 39.4673 17.4721 39.4673 16.3208C39.4673 15.9665 39.4673 15.6123 39.3788 15.3466H33.888ZM74.0947 16.5865C73.7404 15.7009 72.8548 14.1953 70.9065 14.1953C68.9581 14.1953 67.364 15.7009 67.364 18.0034C67.364 20.1289 68.9581 21.8116 71.0836 21.8116C72.7663 21.8116 73.829 20.7488 74.1832 20.1289L72.9434 19.2433C72.5006 19.8632 71.9692 20.306 71.0836 20.306C70.198 20.306 69.6666 19.9518 69.2238 19.1547L74.2718 17.0293L74.0947 16.5865ZM68.9581 17.8263C68.9581 16.4093 70.1094 15.6123 70.9065 15.6123C71.5264 15.6123 72.1463 15.9665 72.3234 16.4093L68.9581 17.8263ZM64.7958 21.4573H66.4784V10.3872H64.7958V21.4573ZM62.1389 14.9924C61.6961 14.5496 60.9876 14.1068 60.102 14.1068C58.2423 14.1068 56.471 15.7894 56.471 17.9149C56.471 20.0403 58.1537 21.6344 60.102 21.6344C60.9876 21.6344 61.6961 21.1916 62.0504 20.7488H62.1389V21.2802C62.1389 22.6972 61.3419 23.4942 60.102 23.4942C59.1279 23.4942 58.4194 22.7857 58.2423 22.1658L56.8253 22.7857C57.2681 23.7599 58.3308 24.9998 60.1906 24.9998C62.1389 24.9998 63.733 23.8485 63.733 21.1031V14.3724H62.1389V14.9924ZM60.1906 20.2175C59.0393 20.2175 58.0651 19.2433 58.0651 17.9149C58.0651 16.5865 59.0393 15.6123 60.1906 15.6123C61.3419 15.6123 62.2275 16.5865 62.2275 17.9149C62.2275 19.2433 61.3419 20.2175 60.1906 20.2175ZM81.7994 10.3872H77.8142V21.4573H79.4969V17.295H81.7994C83.6592 17.295 85.4304 15.9665 85.4304 13.8411C85.4304 11.7156 83.6592 10.3872 81.7994 10.3872ZM81.8879 15.7009H79.4969V11.8927H81.8879C83.1278 11.8927 83.8363 12.9555 83.8363 13.7525C83.7477 14.7267 83.0392 15.7009 81.8879 15.7009ZM92.0724 14.1068C90.8326 14.1068 89.5927 14.6381 89.1499 15.7894L90.6555 16.4093C91.0097 15.7894 91.5411 15.6123 92.161 15.6123C93.0466 15.6123 93.8437 16.1437 93.9322 17.0293V17.1178C93.6665 16.9407 92.9581 16.675 92.2496 16.675C90.6555 16.675 89.0614 17.5606 89.0614 19.1547C89.0614 20.6603 90.3898 21.6344 91.8068 21.6344C92.9581 21.6344 93.4894 21.1031 93.9322 20.5717H94.0208V21.4573H95.6149V17.2064C95.4378 15.2581 93.9322 14.1068 92.0724 14.1068ZM91.8953 20.2175C91.364 20.2175 90.5669 19.9518 90.5669 19.2433C90.5669 18.3577 91.5411 18.092 92.3381 18.092C93.0466 18.092 93.4009 18.2691 93.8437 18.4462C93.6665 19.509 92.7809 20.2175 91.8953 20.2175ZM101.194 14.3724L99.3344 19.1547H99.2459L97.2976 14.3724H95.5263L98.4488 21.1031L96.7662 24.8226H98.4488L102.965 14.3724H101.194ZM86.316 21.4573H87.9987V10.3872H86.316V21.4573Z" fill="white"/>
<path d="M28.9285 7.55382H28.3086V5.7826H28.84C29.2828 5.42835 29.5484 4.71987 29.5484 3.7457V1.08887H33.0909V5.7826H33.7108V7.55382H33.0909V6.40252H29.0171V7.55382H28.9285ZM30.1684 3.7457C30.1684 4.54274 29.9913 5.25123 29.637 5.7826H32.2938V1.70879H30.0798V3.7457H30.1684Z" fill="white" stroke="white" stroke-width="0.2" stroke-miterlimit="10"/>
<path d="M38.9359 5.69371C38.4046 6.22508 37.7846 6.49076 36.9876 6.49076C36.1905 6.49076 35.5706 6.22508 35.0392 5.69371C34.5079 5.16235 34.2422 4.54242 34.2422 3.74537C34.2422 2.94834 34.5079 2.32841 35.0392 1.79705C35.5706 1.26568 36.1905 1 36.9876 1C37.7846 1 38.4046 1.26568 38.9359 1.79705C39.4673 2.32841 39.733 2.94834 39.733 3.74537C39.733 4.54242 39.4673 5.16235 38.9359 5.69371ZM35.5706 5.25091C35.9248 5.60515 36.4562 5.87083 36.9876 5.87083C37.5189 5.87083 38.0503 5.69371 38.4046 5.25091C38.7588 4.89666 39.0245 4.3653 39.0245 3.74537C39.0245 3.12546 38.8474 2.5941 38.4046 2.23985C38.0503 1.88561 37.5189 1.61993 36.9876 1.61993C36.4562 1.61993 35.9248 1.79705 35.5706 2.23985C35.2164 2.5941 34.9507 3.12546 34.9507 3.74537C34.9507 4.3653 35.1278 4.89666 35.5706 5.25091Z" fill="white" stroke="white" stroke-width="0.2" stroke-miterlimit="10"/>
<path d="M43.1868 6.49076C42.3897 6.49076 41.7698 6.22508 41.2385 5.69371C40.7071 5.16235 40.4414 4.54242 40.4414 3.74537C40.4414 2.94834 40.7071 2.32841 41.2385 1.79705C41.7698 1.26568 42.3897 1 43.1868 1C43.9838 1 44.6038 1.26568 45.1351 1.88561L44.6923 2.32841C44.3381 1.88561 43.8067 1.61993 43.1868 1.61993C42.5669 1.61993 42.1241 1.79705 41.6813 2.23985C41.2385 2.5941 41.0613 3.12546 41.0613 3.74537C41.0613 4.3653 41.2385 4.89666 41.6813 5.25091C42.0355 5.60515 42.5669 5.87083 43.1868 5.87083C43.8067 5.87083 44.3381 5.60515 44.7809 5.07379L45.2237 5.51659C44.958 5.78227 44.6923 6.04796 44.3381 6.22508C43.9838 6.4022 43.6296 6.49076 43.1868 6.49076Z" fill="white" stroke="white" stroke-width="0.2" stroke-miterlimit="10"/>
<path d="M48.0578 6.40252H47.3493V1.70879H45.8438V1.08887H49.4748V1.70879H47.9691V6.40252H48.0578Z" fill="white" stroke="white" stroke-width="0.2" stroke-miterlimit="10"/>
<path d="M54.1689 1.08887L52.132 5.60548C51.8663 6.2254 51.4235 6.57965 50.8921 6.57965C50.715 6.57965 50.5379 6.57965 50.3608 6.49109L50.5379 5.87116C50.6265 5.95972 50.8036 5.95972 50.8921 5.95972C51.0693 5.95972 51.1578 5.95972 51.2464 5.87116C51.3349 5.7826 51.4235 5.69404 51.5121 5.51691L51.6892 5.07411L49.918 1.17743H50.715L52.0434 4.1885L53.3718 1.08887H54.1689Z" fill="white" stroke="white" stroke-width="0.2" stroke-miterlimit="10"/>
<path d="M54.9648 6.40252V1.08887H58.773V6.40252H58.0645V1.70879H55.5848V6.40252H54.9648Z" fill="white" stroke="white" stroke-width="0.2" stroke-miterlimit="10"/>
<path d="M60.0117 6.40252V1.08887H60.7202V3.39145H63.377V1.08887H64.0855V6.40252H63.377V4.01138H60.7202V6.40252H60.0117Z" fill="white" stroke="white" stroke-width="0.2" stroke-miterlimit="10"/>
<path d="M69.6664 5.69371C69.135 6.22508 68.5151 6.49076 67.7181 6.49076C66.921 6.49076 66.3011 6.22508 65.7697 5.69371C65.2383 5.16235 64.9727 4.54242 64.9727 3.74537C64.9727 2.94834 65.2383 2.32841 65.7697 1.79705C66.3011 1.26568 66.921 1 67.7181 1C68.5151 1 69.135 1.26568 69.6664 1.79705C70.1978 2.32841 70.4634 2.94834 70.4634 3.74537C70.3749 4.54242 70.1092 5.16235 69.6664 5.69371ZM66.2125 5.25091C66.5668 5.60515 67.0981 5.87083 67.6295 5.87083C68.1609 5.87083 68.6922 5.69371 69.0465 5.25091C69.4007 4.89666 69.6664 4.3653 69.6664 3.74537C69.6664 3.12546 69.4893 2.5941 69.0465 2.23985C68.6922 1.88561 68.1609 1.61993 67.6295 1.61993C67.0981 1.61993 66.5668 1.79705 66.2125 2.23985C65.8583 2.5941 65.5926 3.12546 65.5926 3.74537C65.5926 4.3653 65.8583 4.89666 66.2125 5.25091Z" fill="white" stroke="white" stroke-width="0.2" stroke-miterlimit="10"/>
<path d="M73.2109 6.40252V1.08887H75.1593C75.6021 1.08887 75.9563 1.26599 76.222 1.53167C76.4877 1.79735 76.6648 2.1516 76.6648 2.50584C76.6648 2.77153 76.5763 2.94865 76.4877 3.21433C76.3991 3.39145 76.222 3.56857 75.9563 3.65713C76.222 3.7457 76.3991 3.92282 76.5763 4.09994C76.7534 4.27706 76.8419 4.54274 76.8419 4.89699C76.8419 5.33979 76.6648 5.69404 76.3991 5.95972C76.0449 6.2254 75.6906 6.40252 75.2478 6.40252H73.2109ZM73.9194 3.39145H75.1593C75.425 3.39145 75.6021 3.30289 75.7792 3.12577C75.9563 2.94865 76.0449 2.77153 76.0449 2.5944C76.0449 2.41728 75.8678 2.1516 75.7792 1.97448C75.6021 1.79735 75.425 1.70879 75.1593 1.70879H73.9194V3.39145ZM73.9194 5.7826H75.3364C75.6021 5.7826 75.7792 5.69404 75.9563 5.51691C76.1334 5.33979 76.222 5.16267 76.222 4.89699C76.222 4.71987 76.1334 4.45418 75.9563 4.27706C75.7792 4.09994 75.6021 4.01138 75.3364 4.01138H74.008V5.7826H73.9194Z" fill="white" stroke="white" stroke-width="0.2" stroke-miterlimit="10"/>
<path d="M10.033 12.7568L0.585938 22.6544C0.692015 23.0304 0.882653 23.3771 1.14328 23.6681C1.4039 23.9591 1.72761 24.1867 2.08966 24.3334C2.45171 24.4801 2.84251 24.5421 3.23219 24.5147C3.62187 24.4872 4.00012 24.371 4.33801 24.175L14.9677 18.121L10.033 12.7568Z" fill="#EA4335"/>
<path d="M19.5834 11.0737L14.9866 8.44092L9.8125 12.9814L15.0077 18.1062L19.5693 15.5016C19.9734 15.29 20.3119 14.9718 20.5481 14.5815C20.7843 14.1913 20.9092 13.7438 20.9092 13.2876C20.9092 12.8315 20.7843 12.384 20.5481 11.9937C20.3119 11.6035 19.9734 11.2853 19.5693 11.0737H19.5834Z" fill="#FBBC04"/>
<path d="M0.584502 3.87256C0.527397 4.08367 0.498983 4.3015 0.500028 4.5202V22.0064C0.500599 22.225 0.528985 22.4426 0.584502 22.654L10.3554 13.0099L0.584502 3.87256Z" fill="#4285F4"/>
<path d="M10.1034 13.2633L14.9888 8.44118L4.37321 2.35902C3.97385 2.12513 3.51963 2.00125 3.05682 2.00001C2.49786 1.9989 1.95388 2.18059 1.50778 2.51738C1.06169 2.85418 0.73796 3.3276 0.585938 3.86548L10.1034 13.2633Z" fill="#34A853"/>
</svg>
