<svg width="64" height="64" viewBox="0 0 64 64" fill="none" xmlns="http://www.w3.org/2000/svg">
<path d="M7.16532 41.7202L12.2538 38.7827C12.5295 38.6236 12.8529 38.5683 13.1657 38.6269L23.1777 40.5007C24.0005 40.6546 24.7601 40.0212 24.7563 39.1842L24.7173 30.4118C24.7163 30.1734 24.7791 29.9392 24.8993 29.7334L29.952 21.0832C30.2149 20.633 30.1913 20.0708 29.8916 19.6442L21.3844 7.53507M50.6679 12.9574C36.0012 20 44.0008 29.3334 46.6679 30.6667C51.6734 33.169 58.6344 33.3332 58.6344 33.3332C58.6561 32.8915 58.6673 32.447 58.6673 31.9999C58.6673 17.2723 46.7282 5.33325 32.0007 5.33325C17.2731 5.33325 5.33398 17.2723 5.33398 31.9999C5.33398 46.7275 17.2731 58.6666 32.0007 58.6666C32.4478 58.6666 32.8923 58.6556 33.334 58.6338M44.6881 58.506L36.2433 36.2426L58.5068 44.6873L48.6344 48.6336L44.6881 58.506Z" stroke="#00AEEF" stroke-width="3" stroke-linecap="round" stroke-linejoin="round"/>
</svg>
