<svg width="64" height="64" viewBox="0 0 64 64" fill="none" xmlns="http://www.w3.org/2000/svg">
<path d="M21.3333 45.3333H42.6667M29.3805 7.37066L11.2944 21.4377C10.0854 22.378 9.4809 22.8481 9.04541 23.4369C8.65964 23.9585 8.37227 24.5461 8.19741 25.1708C8 25.876 8 26.6419 8 28.1735V47.4666C8 50.4536 8 51.947 8.5813 53.0879C9.09262 54.0914 9.90852 54.9073 10.9121 55.4187C12.0529 56 13.5464 56 16.5333 56H47.4667C50.4536 56 51.9471 56 53.088 55.4187C54.0915 54.9073 54.9074 54.0914 55.4187 53.0879C56 51.947 56 50.4536 56 47.4666V28.1735C56 26.6419 56 25.876 55.8026 25.1708C55.6277 24.5461 55.3404 23.9585 54.9546 23.4369C54.5191 22.8481 53.9146 22.378 52.7056 21.4377L34.6195 7.37066C33.6826 6.64199 33.2142 6.27765 32.6969 6.1376C32.2405 6.01403 31.7595 6.01403 31.3031 6.1376C30.7858 6.27765 30.3174 6.64199 29.3805 7.37066Z" stroke="#00AEEF" stroke-width="3" stroke-linecap="round" stroke-linejoin="round"/>
</svg>
