<svg width="64" height="64" viewBox="0 0 64 64" fill="none" xmlns="http://www.w3.org/2000/svg">
<path d="M45.334 38.6667V30.6518C45.334 30.1732 45.334 29.9339 45.2611 29.7226C45.1967 29.5358 45.0915 29.3656 44.9532 29.2244C44.7968 29.0648 44.5828 28.9577 44.1547 28.7437L32.0007 22.6667M10.6673 25.3333V43.4843C10.6673 44.4761 10.6673 44.972 10.822 45.4061C10.9588 45.79 11.1817 46.1374 11.4737 46.4216C11.8039 46.7432 12.2547 46.9498 13.1563 47.363L30.2229 55.1852C30.8769 55.485 31.2039 55.6348 31.5445 55.694C31.8463 55.7464 32.155 55.7464 32.4568 55.694C32.7974 55.6348 33.1244 55.485 33.7784 55.1852L50.845 47.363C51.7466 46.9498 52.1974 46.7432 52.5276 46.4216C52.8196 46.1374 53.0425 45.79 53.1793 45.4061C53.334 44.972 53.334 44.4761 53.334 43.4843V25.3333M5.33398 22.6667L31.0466 9.81037C31.3964 9.63546 31.5713 9.54801 31.7548 9.51359C31.9173 9.4831 32.084 9.4831 32.2465 9.51359C32.43 9.54801 32.6049 9.63546 32.9547 9.81037L58.6673 22.6667L32.9547 35.523C32.6049 35.6979 32.43 35.7853 32.2465 35.8198C32.084 35.8503 31.9173 35.8503 31.7548 35.8198C31.5713 35.7853 31.3964 35.6979 31.0466 35.523L5.33398 22.6667Z" stroke="#00AEEF" stroke-width="3" stroke-linecap="round" stroke-linejoin="round"/>
</svg>
