<svg width="52" height="52" viewBox="0 0 52 52" fill="none" xmlns="http://www.w3.org/2000/svg">
<rect x="-0.9" y="0.9" width="50.2" height="50.2" rx="25.1" transform="matrix(-1 0 0 1 50.2 0)" stroke="#7C8499" stroke-width="1.8"/>
<path d="M19.2017 18.002C18.8942 18.002 18.5865 18.1173 18.3519 18.3519C17.8827 18.8211 17.8827 19.5823 18.3519 20.0515L24.3004 26L18.3519 31.9485C17.8827 32.4177 17.8827 33.1789 18.3519 33.6481C18.8211 34.1173 19.5823 34.1173 20.0515 33.6481L26 27.6996L31.9485 33.6481C32.4177 34.1173 33.1789 34.1173 33.6481 33.6481C34.1173 33.1789 34.1173 32.4178 33.6481 31.9485L27.6996 26L33.6481 20.0515C34.1173 19.5822 34.1173 18.8211 33.6481 18.3519C33.1789 17.8827 32.4177 17.8827 31.9485 18.3519L26 24.3004L20.0515 18.3519C19.8169 18.1173 19.5092 18.002 19.2017 18.002Z" fill="#7C8499"/>
</svg>
