<svg width="64" height="64" viewBox="0 0 64 64" fill="none" xmlns="http://www.w3.org/2000/svg">
<path d="M32 42.6667V32M32 21.3333H32.0267M20.8 56H43.2C47.6804 56 49.9206 56 51.6319 55.1281C53.1372 54.3611 54.3611 53.1372 55.1281 51.6319C56 49.9206 56 47.6804 56 43.2V20.8C56 16.3196 56 14.0794 55.1281 12.3681C54.3611 10.8628 53.1372 9.63893 51.6319 8.87195C49.9206 8 47.6804 8 43.2 8H20.8C16.3196 8 14.0794 8 12.3681 8.87195C10.8628 9.63893 9.63893 10.8628 8.87195 12.3681C8 14.0794 8 16.3196 8 20.8V43.2C8 47.6804 8 49.9206 8.87195 51.6319C9.63893 53.1372 10.8628 54.3611 12.3681 55.1281C14.0794 56 16.3196 56 20.8 56Z" stroke="#E0009B" stroke-width="3" stroke-linecap="round" stroke-linejoin="round"/>
</svg>
