<svg width="64" height="64" viewBox="0 0 64 64" fill="none" xmlns="http://www.w3.org/2000/svg">
<path fill-rule="evenodd" clip-rule="evenodd" d="M50.6667 54.6667H13.3333C10.3867 54.6667 8 52.28 8 49.3333V25.3333C8 22.3867 10.3867 20 13.3333 20H50.6667C53.6133 20 56 22.3867 56 25.3333V49.3333C56 52.28 53.6133 54.6667 50.6667 54.6667Z" stroke="white" stroke-width="3" stroke-linecap="round" stroke-linejoin="round"/>
<path d="M43.1305 19.9999V14.6666C43.1305 11.7199 40.7438 9.33325 37.7971 9.33325H26.2025C23.2558 9.33325 20.8691 11.7199 20.8691 14.6666V19.9999" stroke="white" stroke-width="3" stroke-linecap="round" stroke-linejoin="round"/>
<path d="M8 25.3335L24.936 36.5095C25.808 37.0855 26.8293 37.3922 27.8747 37.3922H36.1253C37.1707 37.3922 38.192 37.0855 39.064 36.5095L56 25.3335" stroke="white" stroke-width="3" stroke-linecap="round" stroke-linejoin="round"/>
</svg>
