<svg width="149" height="40" viewBox="0 0 149 40" fill="none" xmlns="http://www.w3.org/2000/svg">
<g clip-path="url(#clip0_3729_4099)">
<path d="M-0.000459807 18.6123L2.80732 15.7667C4.07081 19.2063 7.61833 20.5454 10.4963 20.5454C12.8505 20.5454 14.7458 19.703 14.7458 17.5594C14.7458 15.2754 12.8505 14.6436 9.79436 13.9795L7.58053 13.4881C4.2598 12.7862 0.723082 11.2797 0.701484 6.84665C0.685285 3.41252 3.37967 0.583151 6.7868 0.140387C12.1108 -0.545358 16.4412 1.2635 18.3959 5.0216L15.4099 7.86717C14.1086 4.9514 11.5816 3.6879 8.70364 3.6879C6.45742 3.6879 4.84295 4.74082 4.84295 6.53348C4.84295 8.60691 6.45742 9.34125 9.02222 9.973L11.6572 10.6047C15.4153 11.5173 18.7846 12.9914 18.7846 17.4892C18.7846 21.7387 15.2047 24.1955 10.4261 24.1955C5.93367 24.1955 1.82459 22.581 -0.00585938 18.6123H-0.000459807ZM21.3278 15.3132C21.3278 9.9406 24.6648 6.39309 29.4758 6.39309C34.6054 6.39309 37.4455 9.80021 37.4455 14.541V16.2635H25.0859C25.2965 19.3197 27.0892 20.9719 29.7944 20.9719C32.7803 20.9719 34.114 19.4276 34.7458 17.986L37.1702 20.513C35.8689 22.4784 33.5525 24.2009 29.762 24.2009C24.6702 24.2009 21.3332 20.6533 21.3332 15.3186L21.3278 15.3132ZM25.1183 13.7311H33.898C33.6172 11.0259 32.073 9.55183 29.4704 9.55183C27.046 9.55183 25.4315 10.9557 25.1183 13.7311ZM44.3624 23.8445L38.2879 6.74406H42.6399L45.5557 16.0475L46.9596 21.2797L48.3311 16.0475L51.209 6.74406H55.4909L49.3786 23.8445H44.357H44.3624ZM56.1227 15.3132C56.1227 9.9406 59.4596 6.39309 64.2706 6.39309C69.4002 6.39309 72.2404 9.80021 72.2404 14.541V16.2635H59.8808C60.0913 19.3197 61.884 20.9719 64.5892 20.9719C67.5751 20.9719 68.9088 19.4276 69.5406 17.986L71.965 20.513C70.6637 22.4784 68.3473 24.2009 64.5568 24.2009C59.465 24.2009 56.128 20.6533 56.128 15.3186L56.1227 15.3132ZM59.9131 13.7311H68.6928C68.4121 11.0259 66.8678 9.55183 64.2652 9.55183C61.8408 9.55183 60.2263 10.9557 59.9131 13.7311ZM75.4585 23.8445V6.74406H79.3894V11.4147C80.0211 8.7095 81.776 6.39309 85.1831 6.39309C88.5902 6.39309 90.5557 8.39633 90.5557 11.9438V23.8499H86.587V13.1317C86.587 11.0259 85.8851 9.58423 83.2501 9.58423C80.3721 9.58423 79.3894 11.4471 79.3894 14.2549V23.8391H75.4585V23.8445Z" fill="white"/>
<path d="M94.8484 17.5647C95.6745 16.7278 97.0082 16.8466 97.7587 17.7429C99.4164 19.7299 102.068 20.5399 104.314 20.5399C106.56 20.5399 108.563 19.6975 108.563 17.5539C108.563 15.2699 106.668 14.6381 103.612 13.974L101.398 13.4826C98.0719 12.7807 94.5352 11.2796 94.5136 6.84655C94.4974 3.41242 97.1918 0.577651 100.599 0.140286C105.129 -0.442867 108.936 0.782834 111.182 3.47182C111.852 4.27096 111.749 5.46426 110.993 6.1824C110.145 6.99234 108.817 6.87355 108.045 5.99342C106.652 4.40055 104.686 3.6878 102.521 3.6878C100.356 3.6878 98.6605 4.74072 98.6605 6.53337C98.6605 8.60681 100.275 9.34115 102.84 9.9729L105.475 10.6046C109.233 11.5172 112.602 12.9913 112.602 17.4891C112.602 21.7386 109.022 24.1954 104.244 24.1954C100.329 24.1954 96.7112 22.9697 94.6324 20.0377C94.0924 19.2764 94.1896 18.2288 94.8484 17.5647Z" fill="white"/>
<path d="M116.026 21.8791V2.28405C116.026 1.19873 116.906 0.318604 117.991 0.318604C119.077 0.318604 119.957 1.19873 119.957 2.28405V11.0961L119.816 14.3953L122.624 11.3067L126.803 7.21925C127.117 6.91148 127.538 6.73869 127.975 6.73869C129.482 6.73869 130.227 8.56914 129.147 9.61666L125.184 13.4774L130.13 20.8856C130.972 22.1437 130.07 23.8337 128.553 23.8337C127.9 23.8337 127.289 23.4935 126.944 22.9374L122.516 15.8262L119.951 18.3532V21.8629C119.951 22.9482 119.071 23.8283 117.986 23.8283C116.901 23.8283 116.021 22.9482 116.021 21.8629L116.026 21.8791Z" fill="white"/>
<path d="M139.811 29.336C138.547 29.336 137.386 28.0509 138.007 26.62L140.27 22.6945L139.746 22.7863C138.569 22.7863 137.516 22.0411 137.127 20.9288L133.072 9.42236C132.608 8.11026 133.585 6.73877 134.973 6.73877C135.847 6.73877 136.625 7.30572 136.895 8.14266L139.535 16.431L140.988 20.6319C142.613 16.6308 143.644 12.6351 144.6 8.15886C144.865 7.31112 145.653 6.73877 146.539 6.73877C147.937 6.73877 148.92 8.12106 148.461 9.44395C147.073 15.2701 145.129 21.9332 141.485 28.2453C141.15 28.8662 140.55 29.336 139.805 29.336H139.811Z" fill="white"/>
<path opacity="0.01" d="M107.576 31.7225C107.576 32.2517 107.36 32.7268 107.014 33.0778C106.669 33.4234 106.188 33.6394 105.659 33.6394C105.13 33.6394 104.655 33.4234 104.304 33.0778C103.958 32.7322 103.742 32.2517 103.742 31.7225C103.742 31.1934 103.958 30.7182 104.304 30.3672C104.649 30.0216 105.13 29.8057 105.659 29.8057C106.188 29.8057 106.663 30.0216 107.014 30.3672C107.365 30.7128 107.576 31.1934 107.576 31.7225Z" fill="white"/>
<path opacity="0.02" d="M107.889 32.0248C107.889 32.5539 107.673 33.0291 107.328 33.38C106.982 33.7256 106.502 33.9416 105.973 33.9416C105.443 33.9416 104.968 33.7256 104.617 33.38C104.272 33.0345 104.056 32.5539 104.056 32.0248C104.056 31.4956 104.272 31.0204 104.617 30.6695C104.963 30.3239 105.443 30.1079 105.973 30.1079C106.502 30.1079 106.977 30.3239 107.328 30.6695C107.679 31.015 107.889 31.4956 107.889 32.0248Z" fill="white"/>
<path opacity="0.04" d="M108.208 32.3272C108.208 32.8564 107.992 33.3316 107.646 33.6825C107.301 34.0281 106.82 34.2441 106.291 34.2441C105.762 34.2441 105.287 34.0281 104.936 33.6825C104.59 33.337 104.374 32.8564 104.374 32.3272C104.374 31.7981 104.59 31.3229 104.936 30.972C105.281 30.6264 105.762 30.4104 106.291 30.4104C106.82 30.4104 107.295 30.6264 107.646 30.972C107.997 31.3175 108.208 31.7981 108.208 32.3272Z" fill="white"/>
<path opacity="0.05" d="M108.526 32.6188C108.526 33.1479 108.31 33.6231 107.965 33.974C107.619 34.3196 107.138 34.5356 106.609 34.5356C106.08 34.5356 105.605 34.3196 105.254 33.974C104.908 33.6285 104.692 33.1479 104.692 32.6188C104.692 32.0896 104.908 31.6144 105.254 31.2635C105.6 30.9179 106.08 30.7019 106.609 30.7019C107.138 30.7019 107.614 30.9179 107.965 31.2635C108.315 31.609 108.526 32.0896 108.526 32.6188Z" fill="white"/>
<path opacity="0.06" d="M108.856 32.9049C108.856 33.434 108.64 33.9092 108.295 34.2602C107.949 34.6057 107.468 34.8217 106.939 34.8217C106.41 34.8217 105.935 34.6057 105.584 34.2602C105.238 33.9146 105.022 33.434 105.022 32.9049C105.022 32.3757 105.238 31.9006 105.584 31.5496C105.93 31.204 106.41 30.988 106.939 30.988C107.468 30.988 107.944 31.204 108.295 31.5496C108.646 31.8952 108.856 32.3757 108.856 32.9049Z" fill="white"/>
<path opacity="0.07" d="M109.185 33.1803C109.185 33.7094 108.969 34.1846 108.624 34.5356C108.278 34.8811 107.798 35.0971 107.268 35.0971C106.739 35.0971 106.264 34.8811 105.913 34.5356C105.568 34.19 105.352 33.7094 105.352 33.1803C105.352 32.6511 105.568 32.176 105.913 31.825C106.259 31.4794 106.739 31.2634 107.268 31.2634C107.798 31.2634 108.273 31.4794 108.624 31.825C108.975 32.1706 109.185 32.6511 109.185 33.1803Z" fill="white"/>
<path opacity="0.09" d="M109.52 33.4503C109.52 33.9795 109.304 34.4546 108.959 34.8056C108.613 35.1512 108.133 35.3671 107.603 35.3671C107.074 35.3671 106.599 35.1512 106.248 34.8056C105.903 34.46 105.687 33.9795 105.687 33.4503C105.687 32.9211 105.903 32.446 106.248 32.095C106.594 31.7494 107.074 31.5334 107.603 31.5334C108.133 31.5334 108.608 31.7494 108.959 32.095C109.31 32.4406 109.52 32.9211 109.52 33.4503Z" fill="white"/>
<path opacity="0.1" d="M109.86 33.7149C109.86 34.2441 109.644 34.7193 109.299 35.0702C108.953 35.4158 108.472 35.6318 107.943 35.6318C107.414 35.6318 106.939 35.4158 106.588 35.0702C106.242 34.7247 106.026 34.2441 106.026 33.7149C106.026 33.1858 106.242 32.7106 106.588 32.3597C106.933 32.0141 107.414 31.7981 107.943 31.7981C108.472 31.7981 108.948 32.0141 109.299 32.3597C109.649 32.7052 109.86 33.1858 109.86 33.7149Z" fill="white"/>
<path opacity="0.11" d="M110.206 33.9686C110.206 34.4978 109.99 34.9729 109.644 35.3239C109.299 35.6695 108.818 35.8855 108.289 35.8855C107.76 35.8855 107.285 35.6695 106.934 35.3239C106.588 34.9783 106.372 34.4978 106.372 33.9686C106.372 33.4394 106.588 32.9643 106.934 32.6133C107.279 32.2677 107.76 32.0518 108.289 32.0518C108.818 32.0518 109.293 32.2677 109.644 32.6133C109.995 32.9589 110.206 33.4394 110.206 33.9686Z" fill="white"/>
<path opacity="0.12" d="M110.551 34.2171C110.551 34.7463 110.335 35.2215 109.99 35.5724C109.644 35.918 109.164 36.134 108.635 36.134C108.105 36.134 107.63 35.918 107.279 35.5724C106.934 35.2269 106.718 34.7463 106.718 34.2171C106.718 33.688 106.934 33.2128 107.279 32.8618C107.625 32.5163 108.105 32.3003 108.635 32.3003C109.164 32.3003 109.639 32.5163 109.99 32.8618C110.341 33.2074 110.551 33.688 110.551 34.2171Z" fill="white"/>
<path opacity="0.14" d="M110.902 34.4601C110.902 34.9892 110.686 35.4644 110.341 35.8154C109.995 36.1663 109.514 36.3769 108.985 36.3769C108.456 36.3769 107.981 36.1609 107.63 35.8154C107.284 35.4698 107.068 34.9892 107.068 34.4601C107.068 33.9309 107.284 33.4557 107.63 33.1048C107.975 32.7592 108.456 32.5432 108.985 32.5432C109.514 32.5432 109.99 32.7592 110.341 33.1048C110.691 33.4503 110.902 33.9309 110.902 34.4601Z" fill="white"/>
<path opacity="0.15" d="M111.258 34.6922C111.258 35.2214 111.043 35.6966 110.697 36.0475C110.351 36.3931 109.871 36.6091 109.342 36.6091C108.812 36.6091 108.337 36.3931 107.986 36.0475C107.641 35.702 107.425 35.2214 107.425 34.6922C107.425 34.1631 107.641 33.6879 107.986 33.3369C108.332 32.9914 108.812 32.7754 109.342 32.7754C109.871 32.7754 110.346 32.9914 110.697 33.3369C111.048 33.6825 111.258 34.1631 111.258 34.6922Z" fill="white"/>
<path opacity="0.16" d="M111.62 34.919C111.62 35.4482 111.404 35.9234 111.058 36.2743C110.713 36.6199 110.232 36.8359 109.703 36.8359C109.174 36.8359 108.699 36.6199 108.348 36.2743C108.002 35.9288 107.786 35.4482 107.786 34.919C107.786 34.3899 108.002 33.9147 108.348 33.5638C108.693 33.2182 109.174 33.0022 109.703 33.0022C110.232 33.0022 110.707 33.2182 111.058 33.5638C111.409 33.9093 111.62 34.3899 111.62 34.919Z" fill="white"/>
<path opacity="0.17" d="M111.982 35.1351C111.982 35.6643 111.766 36.1394 111.421 36.4904C111.075 36.836 110.594 37.052 110.065 37.052C109.536 37.052 109.061 36.836 108.71 36.4904C108.364 36.1448 108.148 35.6643 108.148 35.1351C108.148 34.606 108.364 34.1308 108.71 33.7798C109.056 33.4342 109.536 33.2183 110.065 33.2183C110.594 33.2183 111.07 33.4342 111.421 33.7798C111.772 34.1254 111.982 34.606 111.982 35.1351Z" fill="white"/>
<path opacity="0.19" d="M112.349 35.3456C112.349 35.8747 112.133 36.3499 111.788 36.7008C111.442 37.0464 110.962 37.2624 110.432 37.2624C109.903 37.2624 109.428 37.0464 109.077 36.7008C108.732 36.3553 108.516 35.8747 108.516 35.3456C108.516 34.8164 108.732 34.3412 109.077 33.9903C109.423 33.6447 109.903 33.4287 110.432 33.4287C110.962 33.4287 111.437 33.6447 111.788 33.9903C112.139 34.3358 112.349 34.8164 112.349 35.3456Z" fill="white"/>
<path opacity="0.2" d="M112.717 35.5509C112.717 36.08 112.501 36.5552 112.155 36.9062C111.809 37.2517 111.329 37.4677 110.8 37.4677C110.271 37.4677 109.795 37.2517 109.444 36.9062C109.099 36.5606 108.883 36.08 108.883 35.5509C108.883 35.0217 109.099 34.5466 109.444 34.1956C109.79 33.85 110.271 33.634 110.8 33.634C111.329 33.634 111.804 33.85 112.155 34.1956C112.506 34.5412 112.717 35.0217 112.717 35.5509Z" fill="white"/>
<path opacity="0.21" d="M113.089 35.7452C113.089 36.2744 112.873 36.7495 112.527 37.1005C112.181 37.4461 111.701 37.6621 111.172 37.6621C110.643 37.6621 110.167 37.4461 109.816 37.1005C109.471 36.7549 109.255 36.2744 109.255 35.7452C109.255 35.2161 109.471 34.7409 109.816 34.3899C110.162 34.0444 110.643 33.8284 111.172 33.8284C111.701 33.8284 112.176 34.0444 112.527 34.3899C112.878 34.7355 113.089 35.2161 113.089 35.7452Z" fill="white"/>
<path opacity="0.22" d="M113.467 35.9342C113.467 36.4633 113.251 36.9385 112.905 37.2895C112.559 37.635 112.079 37.851 111.55 37.851C111.021 37.851 110.545 37.635 110.194 37.2895C109.849 36.9439 109.633 36.4633 109.633 35.9342C109.633 35.405 109.849 34.9299 110.194 34.5789C110.54 34.2333 111.021 34.0173 111.55 34.0173C112.079 34.0173 112.554 34.2333 112.905 34.5789C113.256 34.9245 113.467 35.405 113.467 35.9342Z" fill="white"/>
<path opacity="0.23" d="M113.845 36.1124C113.845 36.6416 113.629 37.1167 113.284 37.4677C112.938 37.8187 112.458 38.0292 111.929 38.0292C111.399 38.0292 110.924 37.8133 110.573 37.4677C110.228 37.1221 110.012 36.6416 110.012 36.1124C110.012 35.5832 110.228 35.1081 110.573 34.7571C110.919 34.4115 111.399 34.1956 111.929 34.1956C112.458 34.1956 112.933 34.4115 113.284 34.7571C113.635 35.1027 113.845 35.5832 113.845 36.1124Z" fill="white"/>
<path opacity="0.25" d="M114.228 36.285C114.228 36.8142 114.012 37.2893 113.667 37.6403C113.321 37.9913 112.841 38.2019 112.311 38.2019C111.782 38.2019 111.307 37.9859 110.956 37.6403C110.611 37.2947 110.395 36.8142 110.395 36.285C110.395 35.7558 110.611 35.2807 110.956 34.9297C111.302 34.5841 111.782 34.3682 112.311 34.3682C112.841 34.3682 113.316 34.5841 113.667 34.9297C114.018 35.2753 114.228 35.7558 114.228 36.285Z" fill="white"/>
<path opacity="0.26" d="M114.612 36.4471C114.612 36.9763 114.396 37.4514 114.05 37.8024C113.705 38.148 113.224 38.364 112.695 38.364C112.166 38.364 111.691 38.148 111.34 37.8024C110.994 37.4568 110.778 36.9763 110.778 36.4471C110.778 35.918 110.994 35.4428 111.34 35.0918C111.685 34.7463 112.166 34.5303 112.695 34.5303C113.224 34.5303 113.699 34.7463 114.05 35.0918C114.401 35.4374 114.612 35.918 114.612 36.4471Z" fill="white"/>
<path opacity="0.27" d="M115.001 36.6036C115.001 37.1328 114.785 37.6079 114.439 37.9589C114.094 38.3099 113.613 38.5205 113.084 38.5205C112.555 38.5205 112.08 38.3045 111.729 37.9589C111.383 37.6133 111.167 37.1328 111.167 36.6036C111.167 36.0745 111.383 35.5993 111.729 35.2483C112.074 34.9028 112.555 34.6868 113.084 34.6868C113.613 34.6868 114.088 34.9028 114.439 35.2483C114.79 35.5939 115.001 36.0745 115.001 36.6036Z" fill="white"/>
<path opacity="0.28" d="M115.389 36.755C115.389 37.2841 115.173 37.7593 114.828 38.1103C114.482 38.4558 114.002 38.6718 113.473 38.6718C112.943 38.6718 112.468 38.4558 112.117 38.1103C111.772 37.7647 111.556 37.2841 111.556 36.755C111.556 36.2258 111.772 35.7507 112.117 35.3997C112.463 35.0541 112.943 34.8381 113.473 34.8381C114.002 34.8381 114.477 35.0541 114.828 35.3997C115.179 35.7453 115.389 36.2258 115.389 36.755Z" fill="white"/>
<path opacity="0.3" d="M115.783 36.8954C115.783 37.4245 115.567 37.8997 115.221 38.2507C114.876 38.6016 114.395 38.8122 113.866 38.8122C113.337 38.8122 112.862 38.5962 112.511 38.2507C112.165 37.9051 111.949 37.4245 111.949 36.8954C111.949 36.3662 112.165 35.891 112.511 35.5401C112.856 35.1945 113.337 34.9785 113.866 34.9785C114.395 34.9785 114.87 35.1945 115.221 35.5401C115.572 35.8856 115.783 36.3662 115.783 36.8954Z" fill="white"/>
<path opacity="0.31" d="M116.177 37.0304C116.177 37.5595 115.961 38.0347 115.616 38.3857C115.27 38.7366 114.79 38.9472 114.261 38.9472C113.731 38.9472 113.256 38.7312 112.905 38.3857C112.56 38.0401 112.344 37.5595 112.344 37.0304C112.344 36.5012 112.56 36.0261 112.905 35.6751C113.251 35.3295 113.731 35.1135 114.261 35.1135C114.79 35.1135 115.265 35.3295 115.616 35.6751C115.967 36.0207 116.177 36.5012 116.177 37.0304Z" fill="white"/>
<path opacity="0.32" d="M116.572 37.1544C116.572 37.6835 116.356 38.1587 116.01 38.5097C115.665 38.8607 115.184 39.0712 114.655 39.0712C114.126 39.0712 113.651 38.8553 113.3 38.5097C112.954 38.1641 112.738 37.6835 112.738 37.1544C112.738 36.6252 112.954 36.1501 113.3 35.7991C113.645 35.4535 114.126 35.2375 114.655 35.2375C115.184 35.2375 115.659 35.4535 116.01 35.7991C116.361 36.1447 116.572 36.6252 116.572 37.1544Z" fill="white"/>
<path opacity="0.33" d="M116.971 37.2733C116.971 37.8024 116.755 38.2776 116.41 38.6286C116.064 38.9796 115.584 39.1901 115.055 39.1901C114.525 39.1901 114.05 38.9742 113.699 38.6286C113.354 38.283 113.138 37.8024 113.138 37.2733C113.138 36.7441 113.354 36.269 113.699 35.918C114.045 35.5724 114.525 35.3564 115.055 35.3564C115.584 35.3564 116.059 35.5724 116.41 35.918C116.761 36.2636 116.971 36.7441 116.971 37.2733Z" fill="white"/>
<path opacity="0.35" d="M117.371 37.3812C117.371 37.9104 117.155 38.3855 116.809 38.7365C116.464 39.0875 115.983 39.298 115.454 39.298C114.925 39.298 114.45 39.0821 114.099 38.7365C113.753 38.3909 113.537 37.9104 113.537 37.3812C113.537 36.852 113.753 36.3769 114.099 36.0259C114.444 35.6803 114.925 35.4644 115.454 35.4644C115.983 35.4644 116.458 35.6803 116.809 36.0259C117.16 36.3715 117.371 36.852 117.371 37.3812Z" fill="white"/>
<path opacity="0.36" d="M117.776 37.4837C117.776 38.0129 117.56 38.4881 117.215 38.839C116.869 39.19 116.388 39.4006 115.859 39.4006C115.33 39.4006 114.855 39.1846 114.504 38.839C114.158 38.4935 113.942 38.0129 113.942 37.4837C113.942 36.9546 114.158 36.4794 114.504 36.1284C114.85 35.7829 115.33 35.5669 115.859 35.5669C116.388 35.5669 116.864 35.7829 117.215 36.1284C117.565 36.474 117.776 36.9546 117.776 37.4837Z" fill="white"/>
<path opacity="0.37" d="M118.175 37.5809C118.175 38.1101 117.96 38.5852 117.614 38.9362C117.268 39.2872 116.788 39.4978 116.259 39.4978C115.729 39.4978 115.254 39.2818 114.903 38.9362C114.558 38.5906 114.342 38.1101 114.342 37.5809C114.342 37.0517 114.558 36.5766 114.903 36.2256C115.249 35.88 115.729 35.6641 116.259 35.6641C116.788 35.6641 117.263 35.88 117.614 36.2256C117.965 36.5712 118.175 37.0517 118.175 37.5809Z" fill="white"/>
<path opacity="0.38" d="M118.586 37.662C118.586 38.1911 118.37 38.6663 118.024 39.0173C117.679 39.3628 117.198 39.5788 116.669 39.5788C116.14 39.5788 115.664 39.3628 115.314 39.0173C114.968 38.6717 114.752 38.1911 114.752 37.662C114.752 37.1328 114.968 36.6576 115.314 36.3067C115.659 35.9611 116.14 35.7451 116.669 35.7451C117.198 35.7451 117.673 35.9611 118.024 36.3067C118.375 36.6522 118.586 37.1328 118.586 37.662Z" fill="white"/>
<path opacity="0.4" d="M118.991 37.743C118.991 38.2722 118.775 38.7473 118.429 39.0983C118.084 39.4493 117.603 39.6599 117.074 39.6599C116.545 39.6599 116.07 39.4439 115.719 39.0983C115.373 38.7527 115.157 38.2722 115.157 37.743C115.157 37.2139 115.373 36.7387 115.719 36.3877C116.064 36.0422 116.545 35.8262 117.074 35.8262C117.603 35.8262 118.078 36.0422 118.429 36.3877C118.78 36.7333 118.991 37.2139 118.991 37.743Z" fill="white"/>
<path opacity="0.41" d="M119.401 37.8131C119.401 38.3422 119.185 38.8174 118.84 39.1684C118.494 39.5194 118.013 39.7299 117.484 39.7299C116.955 39.7299 116.48 39.514 116.129 39.1684C115.783 38.8228 115.567 38.3422 115.567 37.8131C115.567 37.2839 115.783 36.8088 116.129 36.4578C116.475 36.1122 116.955 35.8962 117.484 35.8962C118.013 35.8962 118.489 36.1122 118.84 36.4578C119.19 36.8034 119.401 37.2839 119.401 37.8131Z" fill="white"/>
<path opacity="0.42" d="M119.806 37.878C119.806 38.4072 119.59 38.8824 119.245 39.2333C118.899 39.5843 118.419 39.7949 117.89 39.7949C117.36 39.7949 116.885 39.5789 116.534 39.2333C116.189 38.8878 115.973 38.4072 115.973 37.878C115.973 37.3489 116.189 36.8737 116.534 36.5227C116.88 36.1772 117.36 35.9612 117.89 35.9612C118.419 35.9612 118.894 36.1772 119.245 36.5227C119.596 36.8683 119.806 37.3489 119.806 37.878Z" fill="white"/>
<path opacity="0.43" d="M120.217 37.932C120.217 38.4611 120.001 38.9363 119.655 39.2873C119.309 39.6382 118.829 39.8488 118.3 39.8488C117.771 39.8488 117.295 39.6328 116.944 39.2873C116.599 38.9417 116.383 38.4611 116.383 37.932C116.383 37.4028 116.599 36.9277 116.944 36.5767C117.29 36.2311 117.771 36.0151 118.3 36.0151C118.829 36.0151 119.304 36.2311 119.655 36.5767C120.006 36.9223 120.217 37.4028 120.217 37.932Z" fill="white"/>
<path opacity="0.44" d="M120.633 37.9752C120.633 38.5044 120.417 38.9795 120.071 39.3305C119.725 39.6815 119.245 39.892 118.716 39.892C118.187 39.892 117.711 39.6761 117.36 39.3305C117.015 38.9849 116.799 38.5044 116.799 37.9752C116.799 37.446 117.015 36.9709 117.36 36.6199C117.706 36.2743 118.187 36.0583 118.716 36.0583C119.245 36.0583 119.72 36.2743 120.071 36.6199C120.422 36.9655 120.633 37.446 120.633 37.9752Z" fill="white"/>
<path opacity="0.46" d="M121.043 38.013C121.043 38.5422 120.827 39.0174 120.481 39.3683C120.136 39.7193 119.655 39.9299 119.126 39.9299C118.597 39.9299 118.122 39.7139 117.771 39.3683C117.425 39.0228 117.209 38.5422 117.209 38.013C117.209 37.4839 117.425 37.0087 117.771 36.6577C118.116 36.3122 118.597 36.0962 119.126 36.0962C119.655 36.0962 120.13 36.3122 120.481 36.6577C120.832 37.0033 121.043 37.4839 121.043 38.013Z" fill="white"/>
<path opacity="0.47" d="M121.453 38.0453C121.453 38.5744 121.237 39.0496 120.891 39.4006C120.546 39.7515 120.065 39.9621 119.536 39.9621C119.007 39.9621 118.532 39.7461 118.181 39.4006C117.835 39.055 117.619 38.5744 117.619 38.0453C117.619 37.5161 117.835 37.0409 118.181 36.69C118.526 36.3444 119.007 36.1284 119.536 36.1284C120.065 36.1284 120.54 36.3444 120.891 36.69C121.242 37.0355 121.453 37.5161 121.453 38.0453Z" fill="white"/>
<path opacity="0.48" d="M121.869 38.067C121.869 38.5962 121.653 39.0713 121.307 39.4223C120.962 39.7733 120.481 39.9838 119.952 39.9838C119.423 39.9838 118.948 39.7679 118.597 39.4223C118.251 39.0767 118.035 38.5962 118.035 38.067C118.035 37.5378 118.251 37.0627 118.597 36.7117C118.942 36.3661 119.423 36.1501 119.952 36.1501C120.481 36.1501 120.956 36.3661 121.307 36.7117C121.658 37.0573 121.869 37.5378 121.869 38.067Z" fill="white"/>
<path opacity="0.49" d="M122.285 38.0831C122.285 38.6123 122.069 39.0874 121.723 39.4384C121.378 39.7894 120.897 40 120.368 40C119.839 40 119.364 39.784 119.013 39.4384C118.667 39.0928 118.451 38.6123 118.451 38.0831C118.451 37.5539 118.667 37.0788 119.013 36.7278C119.358 36.3822 119.839 36.1663 120.368 36.1663C120.897 36.1663 121.372 36.3822 121.723 36.7278C122.074 37.0734 122.285 37.5539 122.285 38.0831Z" fill="white"/>
<path opacity="0.51" d="M122.7 38.0885C122.7 38.6176 122.484 39.0928 122.138 39.4438C121.793 39.7947 121.312 40.0053 120.783 40.0053C120.254 40.0053 119.779 39.7893 119.428 39.4438C119.082 39.0982 118.866 38.6176 118.866 38.0885C118.866 37.5593 119.082 37.0842 119.428 36.7332C119.773 36.3876 120.254 36.1716 120.783 36.1716C121.312 36.1716 121.787 36.3876 122.138 36.7332C122.489 37.0788 122.7 37.5593 122.7 38.0885Z" fill="white"/>
<path opacity="0.52" d="M123.111 38.0831C123.111 38.6123 122.895 39.0874 122.549 39.4384C122.204 39.7894 121.723 40 121.194 40C120.665 40 120.19 39.784 119.839 39.4384C119.493 39.0928 119.277 38.6123 119.277 38.0831C119.277 37.5539 119.493 37.0788 119.839 36.7278C120.184 36.3822 120.665 36.1663 121.194 36.1663C121.723 36.1663 122.199 36.3822 122.549 36.7278C122.9 37.0734 123.111 37.5539 123.111 38.0831Z" fill="white"/>
<path opacity="0.53" d="M123.526 38.0724C123.526 38.6015 123.31 39.0767 122.965 39.4277C122.619 39.7786 122.138 39.9892 121.609 39.9892C121.08 39.9892 120.605 39.7732 120.254 39.4277C119.908 39.0821 119.692 38.6015 119.692 38.0724C119.692 37.5432 119.908 37.068 120.254 36.7171C120.6 36.3715 121.08 36.1555 121.609 36.1555C122.138 36.1555 122.614 36.3715 122.965 36.7171C123.315 37.0626 123.526 37.5432 123.526 38.0724Z" fill="white"/>
<path opacity="0.54" d="M123.942 38.0563C123.942 38.5854 123.726 39.0606 123.381 39.4115C123.035 39.7625 122.554 39.9731 122.025 39.9731C121.496 39.9731 121.021 39.7571 120.67 39.4115C120.324 39.066 120.108 38.5854 120.108 38.0563C120.108 37.5271 120.324 37.0519 120.67 36.701C121.016 36.3554 121.496 36.1394 122.025 36.1394C122.554 36.1394 123.03 36.3554 123.381 36.701C123.732 37.0465 123.942 37.5271 123.942 38.0563Z" fill="white"/>
<path opacity="0.56" d="M124.358 38.0292C124.358 38.5583 124.142 39.0335 123.797 39.3844C123.451 39.7354 122.97 39.946 122.441 39.946C121.912 39.946 121.437 39.73 121.086 39.3844C120.74 39.0389 120.524 38.5583 120.524 38.0292C120.524 37.5 120.74 37.0248 121.086 36.6739C121.432 36.3283 121.912 36.1123 122.441 36.1123C122.97 36.1123 123.446 36.3283 123.797 36.6739C124.148 37.0194 124.358 37.5 124.358 38.0292Z" fill="white"/>
<path opacity="0.57" d="M124.768 37.9967C124.768 38.5258 124.552 39.001 124.207 39.352C123.861 39.7029 123.381 39.9135 122.851 39.9135C122.322 39.9135 121.847 39.6975 121.496 39.352C121.151 39.0064 120.935 38.5258 120.935 37.9967C120.935 37.4675 121.151 36.9924 121.496 36.6414C121.842 36.2958 122.322 36.0798 122.851 36.0798C123.381 36.0798 123.856 36.2958 124.207 36.6414C124.558 36.987 124.768 37.4675 124.768 37.9967Z" fill="white"/>
<path opacity="0.58" d="M125.184 37.9481C125.184 38.4773 124.968 38.9524 124.623 39.3034C124.277 39.6544 123.797 39.8649 123.267 39.8649C122.738 39.8649 122.263 39.649 121.912 39.3034C121.561 38.9578 121.351 38.4773 121.351 37.9481C121.351 37.4189 121.567 36.9438 121.912 36.5928C122.258 36.2472 122.738 36.0312 123.267 36.0312C123.797 36.0312 124.272 36.2472 124.623 36.5928C124.974 36.9384 125.184 37.4189 125.184 37.9481Z" fill="white"/>
<path opacity="0.59" d="M125.599 37.8995C125.599 38.4287 125.383 38.9038 125.038 39.2548C124.692 39.6058 124.212 39.8164 123.682 39.8164C123.153 39.8164 122.678 39.6004 122.327 39.2548C121.976 38.9092 121.766 38.4287 121.766 37.8995C121.766 37.3704 121.982 36.8952 122.327 36.5442C122.673 36.1986 123.153 35.9827 123.682 35.9827C124.212 35.9827 124.687 36.1986 125.038 36.5442C125.389 36.8898 125.599 37.3704 125.599 37.8995Z" fill="white"/>
<path opacity="0.6" d="M126.01 37.8402C126.01 38.3693 125.794 38.8445 125.449 39.1955C125.103 39.5464 124.623 39.757 124.094 39.757C123.564 39.757 123.089 39.541 122.738 39.1955C122.387 38.8499 122.177 38.3693 122.177 37.8402C122.177 37.311 122.393 36.8359 122.738 36.4849C123.084 36.1393 123.564 35.9233 124.094 35.9233C124.623 35.9233 125.098 36.1393 125.449 36.4849C125.8 36.8305 126.01 37.311 126.01 37.8402Z" fill="white"/>
<path opacity="0.62" d="M126.425 37.7699C126.425 38.299 126.21 38.7742 125.864 39.1252C125.518 39.4761 125.038 39.6867 124.509 39.6867C123.979 39.6867 123.504 39.4707 123.153 39.1252C122.808 38.7796 122.592 38.299 122.592 37.7699C122.592 37.2407 122.808 36.7656 123.153 36.4146C123.499 36.069 123.979 35.853 124.509 35.853C125.038 35.853 125.513 36.069 125.864 36.4146C126.215 36.7602 126.425 37.2407 126.425 37.7699Z" fill="white"/>
<path opacity="0.63" d="M126.837 37.6944C126.837 38.2236 126.621 38.6988 126.275 39.0497C125.929 39.4007 125.449 39.6113 124.92 39.6113C124.391 39.6113 123.915 39.3953 123.564 39.0497C123.219 38.7042 123.003 38.2236 123.003 37.6944C123.003 37.1653 123.219 36.6901 123.564 36.3391C123.91 35.9936 124.391 35.7776 124.92 35.7776C125.449 35.7776 125.924 35.9936 126.275 36.3391C126.626 36.6847 126.837 37.1653 126.837 37.6944Z" fill="white"/>
<path opacity="0.64" d="M127.247 37.608C127.247 38.1372 127.031 38.6123 126.685 38.9633C126.34 39.3143 125.859 39.5249 125.33 39.5249C124.801 39.5249 124.326 39.3089 123.975 38.9633C123.624 38.6177 123.413 38.1372 123.413 37.608C123.413 37.0789 123.629 36.6037 123.975 36.2527C124.32 35.9071 124.801 35.6912 125.33 35.6912C125.859 35.6912 126.334 35.9071 126.685 36.2527C127.036 36.5983 127.247 37.0789 127.247 37.608Z" fill="white"/>
<path opacity="0.65" d="M127.657 37.5162C127.657 38.0454 127.441 38.5205 127.095 38.8715C126.75 39.2225 126.269 39.4331 125.74 39.4331C125.211 39.4331 124.736 39.2171 124.385 38.8715C124.034 38.5259 123.823 38.0454 123.823 37.5162C123.823 36.9871 124.039 36.5119 124.385 36.1609C124.73 35.8153 125.211 35.5994 125.74 35.5994C126.269 35.5994 126.744 35.8153 127.095 36.1609C127.446 36.5065 127.657 36.9871 127.657 37.5162Z" fill="white"/>
<path opacity="0.67" d="M128.062 37.4137C128.062 37.9428 127.846 38.418 127.501 38.769C127.155 39.1199 126.675 39.3305 126.145 39.3305C125.616 39.3305 125.141 39.1145 124.79 38.769C124.439 38.4234 124.229 37.9428 124.229 37.4137C124.229 36.8845 124.444 36.4094 124.79 36.0584C125.136 35.7128 125.616 35.4968 126.145 35.4968C126.675 35.4968 127.15 35.7128 127.501 36.0584C127.852 36.404 128.062 36.8845 128.062 37.4137Z" fill="white"/>
<path opacity="0.68" d="M128.472 37.3055C128.472 37.8347 128.256 38.3098 127.911 38.6608C127.565 39.0118 127.085 39.2224 126.556 39.2224C126.026 39.2224 125.551 39.0064 125.2 38.6608C124.849 38.3152 124.639 37.8347 124.639 37.3055C124.639 36.7764 124.855 36.3012 125.2 35.9502C125.546 35.6047 126.026 35.3887 126.556 35.3887C127.085 35.3887 127.56 35.6047 127.911 35.9502C128.262 36.2958 128.472 36.7764 128.472 37.3055Z" fill="white"/>
<path opacity="0.69" d="M128.878 37.1869C128.878 37.716 128.662 38.1912 128.316 38.5422C127.971 38.8931 127.49 39.1037 126.961 39.1037C126.432 39.1037 125.956 38.8877 125.605 38.5422C125.255 38.1966 125.044 37.716 125.044 37.1869C125.044 36.6577 125.26 36.1825 125.605 35.8316C125.951 35.486 126.432 35.27 126.961 35.27C127.49 35.27 127.965 35.486 128.316 35.8316C128.667 36.1771 128.878 36.6577 128.878 37.1869Z" fill="white"/>
<path opacity="0.7" d="M129.277 37.0572C129.277 37.5864 129.061 38.0615 128.715 38.4125C128.37 38.7635 127.889 38.9741 127.36 38.9741C126.831 38.9741 126.356 38.7581 126.005 38.4125C125.654 38.0669 125.443 37.5864 125.443 37.0572C125.443 36.5281 125.659 36.0529 126.005 35.7019C126.35 35.3564 126.831 35.1404 127.36 35.1404C127.889 35.1404 128.365 35.3564 128.715 35.7019C129.066 36.0475 129.277 36.5281 129.277 37.0572Z" fill="white"/>
<path opacity="0.72" d="M129.682 36.9222C129.682 37.4514 129.466 37.9265 129.121 38.2775C128.775 38.6285 128.295 38.8391 127.765 38.8391C127.236 38.8391 126.761 38.6231 126.41 38.2775C126.065 37.9319 125.849 37.4514 125.849 36.9222C125.849 36.3931 126.065 35.9179 126.41 35.5669C126.756 35.2214 127.236 35.0054 127.765 35.0054C128.295 35.0054 128.77 35.2214 129.121 35.5669C129.472 35.9125 129.682 36.3931 129.682 36.9222Z" fill="white"/>
<path opacity="0.73" d="M130.082 36.7765C130.082 37.3056 129.866 37.7808 129.52 38.1318C129.175 38.4827 128.694 38.6933 128.165 38.6933C127.636 38.6933 127.161 38.4773 126.81 38.1318C126.459 37.7862 126.248 37.3056 126.248 36.7765C126.248 36.2473 126.464 35.7721 126.81 35.4212C127.155 35.0756 127.636 34.8596 128.165 34.8596C128.694 34.8596 129.169 35.0756 129.52 35.4212C129.871 35.7667 130.082 36.2473 130.082 36.7765Z" fill="white"/>
<path opacity="0.74" d="M130.481 36.6253C130.481 37.1545 130.265 37.6297 129.92 37.9806C129.574 38.3316 129.093 38.5422 128.564 38.5422C128.035 38.5422 127.56 38.3262 127.209 37.9806C126.858 37.6351 126.647 37.1545 126.647 36.6253C126.647 36.0962 126.863 35.621 127.209 35.2701C127.555 34.9245 128.035 34.7085 128.564 34.7085C129.093 34.7085 129.569 34.9245 129.92 35.2701C130.271 35.6156 130.481 36.0962 130.481 36.6253Z" fill="white"/>
<path opacity="0.75" d="M130.875 36.4632C130.875 36.9924 130.659 37.4676 130.313 37.8185C129.968 38.1695 129.487 38.3801 128.958 38.3801C128.429 38.3801 127.954 38.1641 127.603 37.8185C127.252 37.473 127.041 36.9924 127.041 36.4632C127.041 35.9341 127.257 35.4589 127.603 35.1079C127.948 34.7624 128.429 34.5464 128.958 34.5464C129.487 34.5464 129.962 34.7624 130.313 35.1079C130.664 35.4535 130.875 35.9341 130.875 36.4632Z" fill="white"/>
<path opacity="0.77" d="M131.269 36.296C131.269 36.8252 131.053 37.3003 130.708 37.6513C130.362 38.0023 129.882 38.2128 129.352 38.2128C128.823 38.2128 128.348 37.9969 127.997 37.6513C127.646 37.3057 127.436 36.8252 127.436 36.296C127.436 35.7668 127.652 35.2917 127.997 34.9407C128.343 34.5951 128.823 34.3792 129.352 34.3792C129.882 34.3792 130.357 34.5951 130.708 34.9407C131.059 35.2863 131.269 35.7668 131.269 36.296Z" fill="white"/>
<path opacity="0.78" d="M131.664 36.1178C131.664 36.6469 131.448 37.1221 131.102 37.4731C130.757 37.824 130.276 38.0346 129.747 38.0346C129.218 38.0346 128.743 37.8186 128.392 37.4731C128.041 37.1275 127.83 36.6469 127.83 36.1178C127.83 35.5886 128.046 35.1135 128.392 34.7625C128.737 34.4169 129.218 34.2009 129.747 34.2009C130.276 34.2009 130.751 34.4169 131.102 34.7625C131.453 35.1081 131.664 35.5886 131.664 36.1178Z" fill="white"/>
<path opacity="0.79" d="M132.052 35.9288C132.052 36.458 131.836 36.9331 131.491 37.2841C131.145 37.6351 130.665 37.8457 130.136 37.8457C129.606 37.8457 129.131 37.6297 128.78 37.2841C128.429 36.9385 128.219 36.458 128.219 35.9288C128.219 35.3997 128.435 34.9245 128.78 34.5735C129.126 34.2279 129.606 34.012 130.136 34.012C130.665 34.012 131.14 34.2279 131.491 34.5735C131.842 34.9191 132.052 35.3997 132.052 35.9288Z" fill="white"/>
<path opacity="0.8" d="M132.441 35.7345C132.441 36.2636 132.225 36.7388 131.88 37.0898C131.534 37.4407 131.053 37.6513 130.524 37.6513C129.995 37.6513 129.52 37.4353 129.169 37.0898C128.818 36.7442 128.607 36.2636 128.607 35.7345C128.607 35.2053 128.823 34.7302 129.169 34.3792C129.515 34.0336 129.995 33.8176 130.524 33.8176C131.053 33.8176 131.529 34.0336 131.88 34.3792C132.231 34.7248 132.441 35.2053 132.441 35.7345Z" fill="white"/>
<path opacity="0.81" d="M132.824 35.5292C132.824 36.0583 132.608 36.5335 132.262 36.8844C131.917 37.2354 131.436 37.446 130.907 37.446C130.378 37.446 129.903 37.23 129.552 36.8844C129.201 36.5389 128.99 36.0583 128.99 35.5292C128.99 35 129.206 34.5248 129.552 34.1739C129.897 33.8283 130.378 33.6123 130.907 33.6123C131.436 33.6123 131.911 33.8283 132.262 34.1739C132.613 34.5194 132.824 35 132.824 35.5292Z" fill="white"/>
<path opacity="0.83" d="M133.203 35.3131C133.203 35.8422 132.987 36.3174 132.641 36.6684C132.296 37.0194 131.815 37.2299 131.286 37.2299C130.757 37.2299 130.282 37.014 129.931 36.6684C129.58 36.3228 129.369 35.8422 129.369 35.3131C129.369 34.7839 129.585 34.3088 129.931 33.9578C130.276 33.6122 130.757 33.3962 131.286 33.3962C131.815 33.3962 132.29 33.6122 132.641 33.9578C132.992 34.3034 133.203 34.7839 133.203 35.3131Z" fill="white"/>
<path opacity="0.84" d="M133.581 35.0919C133.581 35.6211 133.365 36.0962 133.019 36.4472C132.674 36.7982 132.193 37.0087 131.664 37.0087C131.135 37.0087 130.66 36.7928 130.309 36.4472C129.958 36.1016 129.747 35.6211 129.747 35.0919C129.747 34.5627 129.963 34.0876 130.309 33.7366C130.654 33.391 131.135 33.175 131.664 33.175C132.193 33.175 132.668 33.391 133.019 33.7366C133.37 34.0822 133.581 34.5627 133.581 35.0919Z" fill="white"/>
<path opacity="0.85" d="M133.959 34.8651C133.959 35.3942 133.743 35.8694 133.397 36.2204C133.052 36.5714 132.571 36.7819 132.042 36.7819C131.513 36.7819 131.038 36.566 130.687 36.2204C130.336 35.8748 130.125 35.3942 130.125 34.8651C130.125 34.3359 130.341 33.8608 130.687 33.5098C131.032 33.1642 131.513 32.9482 132.042 32.9482C132.571 32.9482 133.046 33.1642 133.397 33.5098C133.748 33.8554 133.959 34.3359 133.959 34.8651Z" fill="white"/>
<path opacity="0.86" d="M134.331 34.6219C134.331 35.1511 134.115 35.6262 133.769 35.9772C133.424 36.3282 132.943 36.5388 132.414 36.5388C131.885 36.5388 131.41 36.3228 131.059 35.9772C130.708 35.6316 130.497 35.1511 130.497 34.6219C130.497 34.0928 130.713 33.6176 131.059 33.2666C131.404 32.9211 131.885 32.7051 132.414 32.7051C132.943 32.7051 133.418 32.9211 133.769 33.2666C134.12 33.6122 134.331 34.0928 134.331 34.6219Z" fill="white"/>
<path opacity="0.88" d="M134.698 34.3736C134.698 34.9028 134.482 35.378 134.136 35.7289C133.791 36.0799 133.31 36.2905 132.781 36.2905C132.252 36.2905 131.777 36.0745 131.426 35.7289C131.075 35.3834 130.864 34.9028 130.864 34.3736C130.864 33.8445 131.08 33.3693 131.426 33.0183C131.771 32.6728 132.252 32.4568 132.781 32.4568C133.31 32.4568 133.785 32.6728 134.136 33.0183C134.487 33.3639 134.698 33.8445 134.698 34.3736Z" fill="white"/>
<path opacity="0.89" d="M135.065 34.12C135.065 34.6491 134.849 35.1243 134.504 35.4753C134.158 35.8262 133.677 36.0368 133.148 36.0368C132.619 36.0368 132.144 35.8208 131.793 35.4753C131.442 35.1297 131.231 34.6491 131.231 34.12C131.231 33.5908 131.447 33.1157 131.793 32.7647C132.139 32.4191 132.619 32.2031 133.148 32.2031C133.677 32.2031 134.153 32.4191 134.504 32.7647C134.855 33.1103 135.065 33.5908 135.065 34.12Z" fill="white"/>
<path opacity="0.9" d="M135.427 33.8553C135.427 34.3845 135.211 34.8596 134.866 35.2106C134.52 35.5616 134.04 35.7722 133.511 35.7722C132.981 35.7722 132.506 35.5562 132.155 35.2106C131.804 34.865 131.594 34.3845 131.594 33.8553C131.594 33.3262 131.81 32.851 132.155 32.5C132.501 32.1545 132.981 31.9385 133.511 31.9385C134.04 31.9385 134.515 32.1545 134.866 32.5C135.217 32.8456 135.427 33.3262 135.427 33.8553Z" fill="white"/>
<path opacity="0.91" d="M135.789 33.5799C135.789 34.1091 135.573 34.5843 135.227 34.9352C134.882 35.2862 134.401 35.4968 133.872 35.4968C133.343 35.4968 132.868 35.2808 132.517 34.9352C132.166 34.5897 131.955 34.1091 131.955 33.5799C131.955 33.0508 132.171 32.5756 132.517 32.2246C132.862 31.8791 133.343 31.6631 133.872 31.6631C134.401 31.6631 134.876 31.8791 135.227 32.2246C135.578 32.5702 135.789 33.0508 135.789 33.5799Z" fill="white"/>
<path opacity="0.93" d="M136.145 33.2938C136.145 33.823 135.929 34.2981 135.584 34.6491C135.238 35.0001 134.758 35.2106 134.228 35.2106C133.699 35.2106 133.224 34.9947 132.873 34.6491C132.522 34.3035 132.312 33.823 132.312 33.2938C132.312 32.7646 132.528 32.2895 132.873 31.9385C133.219 31.5929 133.699 31.377 134.228 31.377C134.758 31.377 135.233 31.5929 135.584 31.9385C135.935 32.2841 136.145 32.7646 136.145 33.2938Z" fill="white"/>
<path opacity="0.94" d="M136.496 33.0023C136.496 33.5315 136.28 34.0066 135.934 34.3576C135.589 34.7086 135.108 34.9191 134.579 34.9191C134.05 34.9191 133.575 34.7032 133.224 34.3576C132.873 34.012 132.662 33.5315 132.662 33.0023C132.662 32.4731 132.878 31.998 133.224 31.647C133.569 31.3014 134.05 31.0854 134.579 31.0854C135.108 31.0854 135.583 31.3014 135.934 31.647C136.285 31.9926 136.496 32.4731 136.496 33.0023Z" fill="white"/>
<path opacity="0.95" d="M136.841 32.6998C136.841 33.229 136.626 33.7041 136.28 34.0551C135.934 34.4061 135.454 34.6167 134.925 34.6167C134.395 34.6167 133.92 34.4007 133.569 34.0551C133.218 33.7095 133.008 33.229 133.008 32.6998C133.008 32.1706 133.224 31.6955 133.569 31.3445C133.915 30.9989 134.395 30.783 134.925 30.783C135.454 30.783 135.929 30.9989 136.28 31.3445C136.631 31.6901 136.841 32.1706 136.841 32.6998Z" fill="white"/>
<path opacity="0.96" d="M137.187 32.3919C137.187 32.9211 136.971 33.3963 136.626 33.7472C136.28 34.0982 135.8 34.3088 135.27 34.3088C134.741 34.3088 134.266 34.0928 133.915 33.7472C133.564 33.4017 133.354 32.9211 133.354 32.3919C133.354 31.8628 133.569 31.3876 133.915 31.0367C134.261 30.6911 134.741 30.4751 135.27 30.4751C135.8 30.4751 136.275 30.6911 136.626 31.0367C136.977 31.3822 137.187 31.8628 137.187 32.3919Z" fill="white"/>
<path opacity="0.98" d="M137.522 32.0733C137.522 32.6025 137.306 33.0777 136.961 33.4286C136.615 33.7796 136.134 33.9902 135.605 33.9902C135.076 33.9902 134.601 33.7742 134.25 33.4286C133.899 33.0831 133.688 32.6025 133.688 32.0733C133.688 31.5442 133.904 31.069 134.25 30.718C134.596 30.3725 135.076 30.1565 135.605 30.1565C136.134 30.1565 136.61 30.3725 136.961 30.718C137.312 31.0636 137.522 31.5442 137.522 32.0733Z" fill="white"/>
<path opacity="0.99" d="M137.857 31.744C137.857 32.2732 137.641 32.7483 137.296 33.0993C136.95 33.4503 136.469 33.6608 135.94 33.6608C135.411 33.6608 134.936 33.4449 134.585 33.0993C134.234 32.7537 134.023 32.2732 134.023 31.744C134.023 31.2148 134.239 30.7397 134.585 30.3887C134.931 30.0431 135.411 29.8271 135.94 29.8271C136.469 29.8271 136.945 30.0431 137.296 30.3887C137.647 30.7343 137.857 31.2148 137.857 31.744Z" fill="white"/>
<path d="M138.191 31.4039C138.191 31.9331 137.975 32.4082 137.63 32.7592C137.284 33.1102 136.803 33.3208 136.274 33.3208C135.745 33.3208 135.27 33.1048 134.919 32.7592C134.568 32.4136 134.357 31.9331 134.357 31.4039C134.357 30.8747 134.573 30.3996 134.919 30.0486C135.265 29.703 135.745 29.4871 136.274 29.4871C136.803 29.4871 137.279 29.703 137.63 30.0486C137.981 30.3942 138.191 30.8747 138.191 31.4039Z" fill="white"/>
</g>
<defs>
<clipPath id="clip0_3729_4099">
<rect width="148.58" height="40" fill="white"/>
</clipPath>
</defs>
</svg>
