<svg width="11" height="10" viewBox="0 0 11 10" fill="none" xmlns="http://www.w3.org/2000/svg">
<path d="M5.7 9.9C5.35333 9.9 5.06667 9.79333 4.84 9.58C4.61333 9.36667 4.5 9.10667 4.5 8.8V6.2H2.1C1.71333 6.2 1.4 6.08 1.16 5.84C0.92 5.6 0.8 5.32 0.8 5C0.8 4.68 0.92 4.4 1.16 4.16C1.4 3.92 1.71333 3.8 2.1 3.8H4.5V1.2C4.5 0.893333 4.61333 0.633333 4.84 0.419999C5.06667 0.206666 5.35333 0.0999994 5.7 0.0999994C6.04667 0.0999994 6.33333 0.206666 6.56 0.419999C6.78667 0.633333 6.9 0.893333 6.9 1.2V3.8H9.3C9.68667 3.8 10 3.92 10.24 4.16C10.48 4.4 10.6 4.68 10.6 5C10.6 5.32 10.48 5.6 10.24 5.84C10 6.08 9.68667 6.2 9.3 6.2H6.9V8.8C6.9 9.10667 6.78667 9.36667 6.56 9.58C6.33333 9.79333 6.04667 9.9 5.7 9.9Z" fill="#7C8499"/>
</svg>
