<svg width="24" height="24" viewBox="0 0 24 24" fill="none" xmlns="http://www.w3.org/2000/svg">
<path d="M21 6C21 5.44772 20.5523 5 20 5H17C16.4477 5 16 4.55228 16 4V3C16 2.46957 15.7893 1.96086 15.4142 1.58579C15.0391 1.21071 14.5304 1 14 1H10C9.46957 1 8.96086 1.21071 8.58579 1.58579C8.21071 1.96086 8 2.46957 8 3V4C8 4.55228 7.55228 5 7 5H4C3.44772 5 3 5.44772 3 6C3 6.55228 3.44772 7 4 7H4.31103C4.65021 7 4.93337 7.25874 4.96389 7.59654L6.10059 20.1799C6.19369 21.2106 7.05763 22 8.09248 22H15.9075C16.9424 22 17.8063 21.2106 17.8994 20.1799L19.0361 7.59654C19.0666 7.25874 19.3498 7 19.689 7H20C20.5523 7 21 6.55228 21 6ZM10 4C10 3.44772 10.4477 3 11 3H13C13.5523 3 14 3.44772 14 4C14 4.55228 13.5523 5 13 5H11C10.4477 5 10 4.55228 10 4ZM16.0721 18.1799C15.979 19.2106 15.1151 20 14.0802 20H9.91978C8.88494 20 8.02099 19.2106 7.92789 18.1799L7.01646 8.08997C6.96358 7.50455 7.4246 7 8.0124 7H15.9876C16.5754 7 17.0364 7.50455 16.9835 8.08996L16.0721 18.1799Z" fill="#7C8499"/>
</svg>
