<svg width="64" height="64" viewBox="0 0 64 64" fill="none" xmlns="http://www.w3.org/2000/svg">
<path d="M42.6673 18.6667C42.6673 16.1867 42.6673 14.9468 42.3947 13.9294C41.655 11.1687 39.4986 9.01233 36.7379 8.27259C35.7205 8 34.4806 8 32.0007 8C29.5207 8 28.2808 8 27.2634 8.27259C24.5027 9.01233 22.3463 11.1687 21.6066 13.9294C21.334 14.9468 21.334 16.1867 21.334 18.6667M13.8673 56H50.134C53.1209 56 54.6144 56 55.7553 55.4187C56.7588 54.9074 57.5747 54.0915 58.086 53.088C58.6673 51.9471 58.6673 50.4536 58.6673 47.4667V27.2C58.6673 24.2131 58.6673 22.7196 58.086 21.5787C57.5747 20.5752 56.7588 19.7593 55.7553 19.248C54.6144 18.6667 53.1209 18.6667 50.134 18.6667H13.8673C10.8804 18.6667 9.3869 18.6667 8.24604 19.248C7.2425 19.7593 6.42661 20.5752 5.91528 21.5787C5.33398 22.7196 5.33398 24.2131 5.33398 27.2V47.4667C5.33398 50.4536 5.33398 51.9471 5.91528 53.088C6.42661 54.0915 7.2425 54.9074 8.24604 55.4187C9.3869 56 10.8804 56 13.8673 56Z" stroke="#00AEEF" stroke-width="3" stroke-linecap="round" stroke-linejoin="round"/>
</svg>
