<svg width="64" height="64" viewBox="0 0 64 64" fill="none" xmlns="http://www.w3.org/2000/svg">
<path d="M45.334 8L32.0007 18.6667L18.6673 8M18.134 56H45.8673C50.3477 56 52.5879 56 54.2992 55.1281C55.8045 54.3611 57.0284 53.1372 57.7954 51.6319C58.6673 49.9206 58.6673 47.6804 58.6673 43.2V31.4667C58.6673 26.9862 58.6673 24.746 57.7954 23.0347C57.0284 21.5294 55.8045 20.3056 54.2992 19.5386C52.5879 18.6667 50.3477 18.6667 45.8673 18.6667H18.134C13.6536 18.6667 11.4134 18.6667 9.70206 19.5386C8.19676 20.3056 6.97292 21.5294 6.20593 23.0347C5.33398 24.746 5.33398 26.9862 5.33398 31.4667V43.2C5.33398 47.6804 5.33398 49.9206 6.20593 51.6319C6.97292 53.1372 8.19676 54.3611 9.70206 55.1281C11.4134 56 13.6536 56 18.134 56Z" stroke="white" stroke-width="3" stroke-linecap="round" stroke-linejoin="round"/>
</svg>
