<svg width="65" height="64" viewBox="0 0 65 64" fill="none" xmlns="http://www.w3.org/2000/svg">
<path d="M46.1503 48C52.3994 43.7736 56.5 36.7411 56.5 28.7599C56.5 15.8222 45.7545 5.33337 32.5 5.33337C19.2455 5.33337 8.5 15.8222 8.5 28.7599C8.5 36.7411 12.6006 43.7736 18.8497 48M22.7924 37.3334C20.55 35.0668 19.1667 32.0231 19.1667 28.6682C19.1667 21.6723 25.1368 16 32.5 16C39.8632 16 45.8333 21.6723 45.8333 28.6682C45.8333 32.0254 44.45 35.0668 42.2076 37.3334M32.5 58.6667C29.5545 58.6667 27.1667 56.2789 27.1667 53.3334V48C27.1667 45.0545 29.5545 42.6667 32.5 42.6667C35.4455 42.6667 37.8333 45.0545 37.8333 48V53.3334C37.8333 56.2789 35.4455 58.6667 32.5 58.6667ZM35.1667 29.3334C35.1667 30.8061 33.9728 32 32.5 32C31.0272 32 29.8333 30.8061 29.8333 29.3334C29.8333 27.8606 31.0272 26.6667 32.5 26.6667C33.9728 26.6667 35.1667 27.8606 35.1667 29.3334Z" stroke="#00AEEF" stroke-width="3" stroke-linecap="round" stroke-linejoin="round"/>
</svg>
