<svg width="64" height="64" viewBox="0 0 64 64" fill="none" xmlns="http://www.w3.org/2000/svg">
<path d="M45.3333 5.33331L56 16M56 16L45.3333 26.6666M56 16H20.8C16.3196 16 14.0794 16 12.3681 16.8719C10.8628 17.6389 9.63893 18.8628 8.87195 20.3681C8 22.0794 8 24.3196 8 28.8V29.3333M8 48H43.2C47.6804 48 49.9206 48 51.6319 47.128C53.1372 46.361 54.3611 45.1372 55.1281 43.6319C56 41.9206 56 39.6804 56 35.2V34.6666M8 48L18.6667 58.6666M8 48L18.6667 37.3333" stroke="#00AEEF" stroke-width="3" stroke-linecap="round" stroke-linejoin="round"/>
</svg>
