<svg width="64" height="64" viewBox="0 0 64 64" fill="none" xmlns="http://www.w3.org/2000/svg">
<path d="M7.16336 41.7205L12.2519 38.7829C12.5275 38.6238 12.851 38.5686 13.1638 38.6271L23.1758 40.5009C23.9986 40.6549 24.7581 40.0215 24.7544 39.1844L24.7154 30.412C24.7143 30.1737 24.7772 29.9394 24.8974 29.7336L29.95 21.0834C30.213 20.6332 30.1894 20.071 29.8897 19.6444L21.3825 7.53532M50.6659 12.9576C35.9993 20.0003 43.9988 29.3336 46.6659 30.6669C51.6714 33.1693 58.6324 33.3335 58.6324 33.3335C58.6542 32.8918 58.6654 32.4473 58.6654 32.0002C58.6654 17.2726 46.7263 5.3335 31.9987 5.3335C17.2711 5.3335 5.33203 17.2726 5.33203 32.0002C5.33203 46.7278 17.2711 58.6668 31.9987 58.6668C32.4458 58.6668 32.8903 58.6558 33.332 58.6341M44.6861 58.5063L36.2414 36.2428L58.5048 44.6876L48.6324 48.6339L44.6861 58.5063Z" stroke="white" stroke-width="3" stroke-linecap="round" stroke-linejoin="round"/>
</svg>
