<svg width="65" height="64" viewBox="0 0 65 64" fill="none" xmlns="http://www.w3.org/2000/svg">
<path d="M45.833 29.3333V8M35.1663 18.6667H56.4996M27.7717 36.9682C24.5675 33.764 22.0374 30.1409 20.1814 26.2753C20.0217 25.9428 19.9419 25.7765 19.8806 25.5661C19.6627 24.8185 19.8192 23.9005 20.2726 23.2674C20.4001 23.0892 20.5526 22.9368 20.8574 22.6319C21.7897 21.6997 22.2558 21.2335 22.5606 20.7648C23.7099 18.9971 23.7099 16.7182 22.5606 14.9505C22.2558 14.4817 21.7897 14.0156 20.8574 13.0833L20.3377 12.5637C18.9206 11.1465 18.212 10.4379 17.451 10.053C15.9375 9.28746 14.1501 9.28746 12.6366 10.053C11.8756 10.4379 11.167 11.1465 9.7498 12.5637L9.32944 12.984C7.91712 14.3964 7.21095 15.1025 6.67162 16.0626C6.07317 17.128 5.64287 18.7826 5.64651 20.0045C5.64978 21.1057 5.86339 21.8583 6.29061 23.3635C8.58653 31.4526 12.9185 39.0855 19.2864 45.4535C25.6544 51.8214 33.2873 56.1533 41.3764 58.4493C42.8816 58.8765 43.6342 59.0901 44.7354 59.0934C45.9573 59.097 47.6119 58.6667 48.6773 58.0683C49.6374 57.5289 50.3435 56.8228 51.7559 55.4104L52.1762 54.9901C53.5934 53.5729 54.302 52.8643 54.6869 52.1033C55.4524 50.5898 55.4524 48.8024 54.6869 47.2889C54.302 46.5279 53.5934 45.8193 52.1762 44.4021L51.6566 43.8825C50.7243 42.9502 50.2581 42.4841 49.7894 42.1793C48.0217 41.03 45.7428 41.03 43.9751 42.1793C43.5064 42.4841 43.0402 42.9502 42.1079 43.8825C41.8031 44.1873 41.6507 44.3397 41.4725 44.4673C40.8394 44.9207 39.9213 45.0772 39.1737 44.8593C38.9634 44.798 38.7971 44.7181 38.4646 44.5585C34.5989 42.7025 30.9759 40.1724 27.7717 36.9682Z" stroke="#00AEEF" stroke-width="3" stroke-linecap="round" stroke-linejoin="round"/>
</svg>
