<svg width="64" height="64" viewBox="0 0 64 64" fill="none" xmlns="http://www.w3.org/2000/svg">
<path d="M58.6673 23.817C58.6673 22.2015 58.6673 21.3937 58.3479 21.0197C58.0707 20.6951 57.6549 20.5229 57.2294 20.5564C56.739 20.595 56.1678 21.1661 55.0255 22.3085L45.334 32L55.0255 41.6915C56.1678 42.8338 56.739 43.405 57.2294 43.4436C57.6549 43.4771 58.0707 43.3048 58.3479 42.9803C58.6673 42.6063 58.6673 41.7985 58.6673 40.183V23.817Z" stroke="#00AEEF" stroke-width="3" stroke-linecap="round" stroke-linejoin="round"/>
<path d="M5.33398 26.1333C5.33398 21.6529 5.33398 19.4127 6.20593 17.7014C6.97292 16.1961 8.19676 14.9722 9.70206 14.2053C11.4134 13.3333 13.6536 13.3333 18.134 13.3333H32.534C37.0144 13.3333 39.2546 13.3333 40.9659 14.2053C42.4712 14.9722 43.6951 16.1961 44.462 17.7014C45.334 19.4127 45.334 21.6529 45.334 26.1333V37.8666C45.334 42.3471 45.334 44.5873 44.462 46.2986C43.6951 47.8039 42.4712 49.0277 40.9659 49.7947C39.2546 50.6666 37.0144 50.6666 32.534 50.6666H18.134C13.6536 50.6666 11.4134 50.6666 9.70206 49.7947C8.19676 49.0277 6.97292 47.8039 6.20593 46.2986C5.33398 44.5873 5.33398 42.3471 5.33398 37.8666V26.1333Z" stroke="#00AEEF" stroke-width="3" stroke-linecap="round" stroke-linejoin="round"/>
</svg>
