<svg width="28" height="30" viewBox="0 0 28 30" fill="none" xmlns="http://www.w3.org/2000/svg">
<path fill-rule="evenodd" clip-rule="evenodd" d="M20.4146 17.7925C20.0662 17.6181 18.3536 16.7755 18.0343 16.6591C17.715 16.5429 17.4828 16.4848 17.2506 16.8335C17.0183 17.1821 16.3507 17.9668 16.1475 18.1994C15.9444 18.4318 15.7411 18.461 15.3928 18.2865C15.0444 18.1122 13.922 17.7444 12.5915 16.5575C11.5559 15.6338 10.8568 14.4931 10.6536 14.1444C10.4504 13.7956 10.6319 13.6071 10.8063 13.4335C10.9631 13.2773 11.1547 13.0265 11.3289 12.8231C11.503 12.6197 11.5611 12.4744 11.6772 12.242C11.7933 12.0094 11.7353 11.8061 11.6481 11.6318C11.5611 11.4574 10.8644 9.7427 10.5741 9.04516C10.2913 8.36597 10.0042 8.45797 9.79034 8.44719C9.58739 8.43711 9.35491 8.43495 9.12273 8.43495C8.8905 8.43495 8.51308 8.52214 8.19371 8.87078C7.8745 9.21953 6.97456 10.0624 6.97456 11.7769C6.97456 13.4916 8.22274 15.148 8.39696 15.3804C8.57118 15.613 10.8533 19.1315 14.3478 20.6404C15.1789 20.9994 15.8278 21.2136 16.3337 21.3742C17.1681 21.6393 17.9275 21.6019 18.5278 21.5122C19.197 21.4123 20.5888 20.6696 20.879 19.8559C21.1693 19.0421 21.1693 18.3446 21.0822 18.1994C20.9952 18.054 20.7629 17.9668 20.4146 17.7925ZM14.0586 26.471H14.0539C11.9746 26.4702 9.93523 25.9115 8.15611 24.8558L7.73296 24.6046L3.34732 25.7551L4.5179 21.4791L4.24245 21.0407C3.08251 19.1958 2.46984 17.0635 2.47075 14.874C2.4733 8.48509 7.67155 3.28725 14.0632 3.28725C17.1583 3.28835 20.0676 4.49522 22.2555 6.68556C24.4432 8.87575 25.6473 11.7871 25.6461 14.8833C25.6435 21.2727 20.4454 26.471 14.0586 26.471ZM23.9205 5.0212C21.2884 2.38601 17.788 0.934121 14.0585 0.932617C6.37408 0.932617 0.119925 7.18637 0.116817 14.8731C0.115814 17.3303 0.757754 19.7286 1.97776 21.8429L0 29.0672L7.39053 27.1286C9.4269 28.2392 11.7196 28.8247 14.0529 28.8254H14.0586C21.7422 28.8254 27.9969 22.5711 28 14.8842C28.0014 11.1591 26.5526 7.65639 23.9205 5.02125" fill="white"/>
</svg>
