<svg width="24" height="20" viewBox="0 0 24 20" fill="none" xmlns="http://www.w3.org/2000/svg">
<path d="M1.47138 8.71999L15.7674 2.82979C17.1786 2.21623 21.9643 0.252831 21.9643 0.252831C21.9643 0.252831 24.1732 -0.606156 23.9891 1.47995C23.9277 2.33894 23.4369 5.34539 22.946 8.59727L21.4121 18.2302C21.4121 18.2302 21.2894 19.6414 20.2464 19.8868C19.2033 20.1322 17.4853 19.0278 17.1786 18.7824C16.9331 18.5983 12.5769 15.8373 10.9816 14.4875C10.5521 14.1193 10.0612 13.3831 11.0429 12.5241C13.2518 10.4993 15.8901 7.98371 17.4853 6.38845C18.2216 5.65218 18.9579 3.9342 15.8901 6.02031L7.23886 11.8492C7.23886 11.8492 6.25716 12.4627 4.41648 11.9105C2.57579 11.3583 0.428324 10.622 0.428324 10.622C0.428324 10.622 -1.04423 9.70168 1.47138 8.71999Z" fill="white"/>
</svg>
