<svg width="24" height="26" viewBox="0 0 24 26" fill="none" xmlns="http://www.w3.org/2000/svg">
<path fill-rule="evenodd" clip-rule="evenodd" d="M13.2742 7.44493C13.2911 7.1227 13.5659 6.87511 13.8881 6.89192C15.0937 6.95482 16.0967 7.31974 16.8111 8.05836C17.5227 8.79414 17.8716 9.82204 17.9328 11.0565C17.9488 11.3788 17.7005 11.653 17.3782 11.669C17.056 11.685 16.7817 11.4367 16.7658 11.1144C16.7133 10.0577 16.4234 9.33828 15.9712 8.8707C15.5217 8.40594 14.8357 8.11143 13.8273 8.05882C13.505 8.04201 13.2574 7.76716 13.2742 7.44493Z" fill="white"/>
<path fill-rule="evenodd" clip-rule="evenodd" d="M12.3883 4.29748C12.4119 3.97568 12.6918 3.73389 13.0136 3.75744C15.4671 3.937 17.4419 4.77531 18.8804 6.34551L18.8806 6.34573C20.3034 7.90047 20.9796 9.83457 20.9305 12.1032C20.9236 12.4257 20.6564 12.6816 20.3338 12.6746C20.0112 12.6676 19.7553 12.4005 19.7623 12.0779C19.8056 10.0773 19.2173 8.44446 18.0186 7.1346C16.8234 5.83016 15.1528 5.08561 12.9283 4.92281C12.6065 4.89926 12.3648 4.61929 12.3883 4.29748Z" fill="white"/>
<path fill-rule="evenodd" clip-rule="evenodd" d="M11.3574 1.30527C11.3597 0.98261 11.6231 0.722865 11.9457 0.725112C15.3363 0.748728 18.2022 1.87747 20.5032 4.12061C22.8235 6.3825 23.9709 9.46185 24 13.2864C24.0025 13.609 23.7429 13.8726 23.4203 13.875C23.0976 13.8775 22.834 13.6179 22.8316 13.2952C22.8043 9.7115 21.7382 6.95629 19.6876 4.95731C17.6178 2.93956 15.0479 1.91523 11.9376 1.89357C11.6149 1.89132 11.3552 1.62793 11.3574 1.30527Z" fill="white"/>
<path d="M13.9736 18.9108C13.9736 18.9108 14.7949 18.9801 15.2371 18.4354L16.0992 17.3508C16.5151 16.813 17.5186 16.4699 18.5013 17.0174C19.2378 17.4374 19.9527 17.894 20.6436 18.3855C21.2957 18.8651 22.6312 19.9795 22.6354 19.9795C23.2716 20.5166 23.4185 21.3053 22.9854 22.137C22.9854 22.1418 22.9819 22.1502 22.9819 22.1543C22.5048 22.9813 21.8992 23.7271 21.1876 24.3638C21.1793 24.3679 21.1793 24.3721 21.1717 24.3762C20.5535 24.8928 19.9461 25.1864 19.3496 25.2571C19.2618 25.2725 19.1726 25.278 19.0835 25.2737C18.8205 25.2763 18.5588 25.236 18.3087 25.1545L18.2893 25.1261C17.3703 24.8669 15.8359 24.2182 13.2806 22.8085C11.8019 22.0024 10.3941 21.0725 9.07238 20.0287C8.40988 19.5059 7.77794 18.9454 7.17966 18.3502L7.1159 18.2864L7.05214 18.2226L6.98838 18.1589C6.96689 18.1381 6.9461 18.1166 6.92462 18.0951C6.32935 17.4968 5.7689 16.8649 5.24605 16.2024C4.20245 14.8808 3.27252 13.4733 2.46622 11.9949C1.05656 9.43891 0.40786 7.90588 0.148659 6.98551L0.120244 6.9661C0.0389953 6.71596 -0.00103155 6.45426 0.00173199 6.19127C-0.00311945 6.10224 0.00222946 6.01295 0.0176729 5.92514C0.0920604 5.32958 0.386145 4.72177 0.899926 4.10172C0.904085 4.0941 0.908242 4.0941 0.912401 4.08578C1.54883 3.37424 2.29468 2.76876 3.12185 2.29217C3.126 2.29217 3.13432 2.28801 3.13917 2.28801C3.97083 1.85485 4.75953 2.00178 5.29595 2.63454C5.30011 2.63869 6.41245 3.9742 6.88996 4.62636C7.3815 5.31784 7.8381 6.03351 8.25805 6.77066C8.80556 7.75271 8.4625 8.75833 7.92469 9.17278L6.84006 10.0349C6.29255 10.4771 6.36463 11.2984 6.36463 11.2984C6.36463 11.2984 7.97112 17.3785 13.9736 18.9108Z" fill="white"/>
</svg>
