<svg width="16" height="28" viewBox="0 0 16 28" fill="none" xmlns="http://www.w3.org/2000/svg">
<path d="M8.11603 0.267822C4.18537 0.267822 0.999023 3.45427 0.999023 7.38483C0.999023 11.3155 4.18537 14.5021 8.11603 14.5021C12.0467 14.5021 15.233 11.3155 15.233 7.38483C15.233 3.45427 12.0467 0.267822 8.11603 0.267822ZM8.11603 10.327C6.49123 10.327 5.17402 9.00973 5.17402 7.38493C5.17402 5.76013 6.49123 4.44292 8.11603 4.44292C9.74083 4.44292 11.058 5.76013 11.058 7.38493C11.058 9.00973 9.74083 10.327 8.11603 10.327Z" fill="#E0009B"/>
<path d="M10.6285 20.1651C13.4777 19.5847 15.1851 18.2354 15.2754 18.163C16.1092 17.4944 16.2431 16.2764 15.5745 15.4426C14.9059 14.6089 13.6881 14.4749 12.8542 15.1435C12.8366 15.1577 11.0155 16.5547 8.0192 16.5567C5.023 16.5547 3.16344 15.1577 3.14582 15.1435C2.31188 14.4749 1.09407 14.6089 0.425535 15.4426C-0.243104 16.2764 -0.109172 17.4944 0.724565 18.163C0.816127 18.2364 2.594 19.6209 5.52308 20.1876L1.44087 24.4539C0.699001 25.2233 0.721306 26.4483 1.49067 27.1902C1.86619 27.5523 2.35018 27.7322 2.83376 27.7322C3.34076 27.7322 3.84726 27.5341 4.22695 27.1403L8.0193 23.1004L12.1947 27.1664C12.9512 27.9218 14.1763 27.9205 14.9314 27.1643C15.6865 26.408 15.6856 25.1827 14.9292 24.4276L10.6285 20.1651Z" fill="#E0009B"/>
</svg>
