<svg width="24" height="24" viewBox="0 0 24 24" fill="none" xmlns="http://www.w3.org/2000/svg">
<path d="M11.0729 2.29235C11.41 1.45891 12.59 1.45891 12.9271 2.29235L14.8835 7.13011C15.0268 7.48433 15.3593 7.72596 15.7405 7.75274L20.946 8.11849C21.8429 8.1815 22.2075 9.30375 21.519 9.88186L17.5226 13.2375C17.23 13.4832 17.1029 13.8742 17.1953 14.2449L18.456 19.3087C18.6732 20.1811 17.7186 20.8747 16.956 20.3986L12.5296 17.6347C12.2055 17.4323 11.7945 17.4323 11.4704 17.6347L7.04399 20.3986C6.28142 20.8747 5.32678 20.1811 5.54398 19.3087L6.80474 14.2449C6.89705 13.8742 6.77002 13.4832 6.47741 13.2375L2.481 9.88186C1.7925 9.30375 2.15715 8.1815 3.05396 8.11849L8.25952 7.75274C8.64066 7.72596 8.97324 7.48433 9.11649 7.13011L11.0729 2.29235Z" fill="#D0D3DD"/>
<mask id="mask0_3796_18097" style="mask-type:alpha" maskUnits="userSpaceOnUse" x="0" y="0" width="12" height="24">
<g clip-path="url(#clip0_3796_18097)">
<path d="M11.0729 2.29235C11.41 1.45891 12.59 1.45891 12.9271 2.29235L14.8835 7.13011C15.0268 7.48433 15.3593 7.72596 15.7405 7.75274L20.946 8.11849C21.8429 8.1815 22.2075 9.30375 21.519 9.88186L17.5226 13.2375C17.23 13.4832 17.1029 13.8742 17.1953 14.2449L18.456 19.3087C18.6732 20.1811 17.7186 20.8747 16.956 20.3986L12.5296 17.6347C12.2055 17.4323 11.7945 17.4323 11.4704 17.6347L7.04399 20.3986C6.28142 20.8747 5.32678 20.1811 5.54398 19.3087L6.80474 14.2449C6.89705 13.8742 6.77002 13.4832 6.47741 13.2375L2.481 9.88186C1.7925 9.30375 2.15715 8.1815 3.05396 8.11849L8.25952 7.75274C8.64066 7.72596 8.97324 7.48433 9.11649 7.13011L11.0729 2.29235Z" fill="#E0009B"/>
</g>
</mask>
<g mask="url(#mask0_3796_18097)">
<path d="M11.0729 2.29235C11.41 1.45891 12.59 1.45891 12.9271 2.29235L14.8835 7.13011C15.0268 7.48433 15.3593 7.72596 15.7405 7.75274L20.946 8.11849C21.8429 8.1815 22.2075 9.30375 21.519 9.88186L17.5226 13.2375C17.23 13.4832 17.1029 13.8742 17.1953 14.2449L18.456 19.3087C18.6732 20.1811 17.7186 20.8747 16.956 20.3986L12.5296 17.6347C12.2055 17.4323 11.7945 17.4323 11.4704 17.6347L7.04399 20.3986C6.28142 20.8747 5.32678 20.1811 5.54398 19.3087L6.80474 14.2449C6.89705 13.8742 6.77002 13.4832 6.47741 13.2375L2.481 9.88186C1.7925 9.30375 2.15715 8.1815 3.05396 8.11849L8.25952 7.75274C8.64066 7.72596 8.97324 7.48433 9.11649 7.13011L11.0729 2.29235Z" fill="#E0009B"/>
</g>
<defs>
<clipPath id="clip0_3796_18097">
<rect width="12" height="24" fill="white"/>
</clipPath>
</defs>
</svg>
