<svg width="20" height="20" viewBox="0 0 20 20" fill="none" xmlns="http://www.w3.org/2000/svg">
<path d="M9.07294 1.29235C9.41 0.458907 10.59 0.458908 10.9271 1.29235L12.8835 6.13011C13.0268 6.48433 13.3593 6.72596 13.7405 6.75274L18.946 7.11849C19.8429 7.1815 20.2075 8.30375 19.519 8.88186L15.5226 12.2375C15.23 12.4832 15.1029 12.8742 15.1953 13.2449L16.456 18.3087C16.6732 19.1811 15.7186 19.8747 14.956 19.3986L10.5296 16.6347C10.2055 16.4323 9.79446 16.4323 9.47036 16.6347L5.04399 19.3986C4.28142 19.8747 3.32678 19.1811 3.54398 18.3087L4.80474 13.2449C4.89705 12.8742 4.77002 12.4832 4.47741 12.2375L0.481003 8.88186C-0.207496 8.30375 0.157147 7.1815 1.05396 7.11849L6.25952 6.75274C6.64066 6.72596 6.97324 6.48433 7.11649 6.13011L9.07294 1.29235Z" fill="#D0D3DD"/>
</svg>
