<svg width="28" height="16" viewBox="0 0 28 16" fill="none" xmlns="http://www.w3.org/2000/svg">
<path d="M15.25 16C5.684 16 0.228 9.994 0 0H4.792C4.95 7.336 8.482 10.442 11.28 11.082V0H15.792V6.326C18.556 6.054 21.46 3.172 22.438 0H26.95C26.5721 1.66393 25.8349 3.22508 24.79 4.574C23.7096 5.96715 22.3559 7.12483 20.812 7.976C22.5355 8.75297 24.0793 9.87863 25.346 11.282C26.5698 12.6383 27.4764 14.2499 28 16H23.034C22.5548 14.4703 21.6198 13.1235 20.354 12.14C19.0353 11.1105 17.4567 10.4673 15.794 10.282V16H15.25Z" fill="white"/>
</svg>
