<svg width="16" height="16" viewBox="0 0 16 16" fill="none" xmlns="http://www.w3.org/2000/svg">
<path d="M1.20168 0.00199765C0.894206 0.00199765 0.58651 0.1173 0.351894 0.351899C-0.117278 0.821058 -0.117318 1.58227 0.351894 2.05151L6.30042 8L0.351894 13.9485C-0.117318 14.4177 -0.117278 15.1789 0.351894 15.6481C0.821126 16.1173 1.5823 16.1173 2.05147 15.6481L8 9.69956L13.9485 15.6481C14.4177 16.1173 15.1789 16.1173 15.6481 15.6481C16.1173 15.1789 16.1173 14.4178 15.6481 13.9485L9.69957 8L15.6481 2.05151C16.1173 1.58223 16.1173 0.821098 15.6481 0.351899C15.1789 -0.1173 14.4177 -0.1173 13.9485 0.351899L8 6.30042L2.05147 0.351899C1.81689 0.1173 1.50916 0.00203765 1.20168 0.00199765Z" fill="white"/>
</svg>
